<?xml version="1.0" encoding="utf-8"?>
<!-- Generator: Adobe Illustrator 16.0.4, SVG Export Plug-In . SVG Version: 6.00 Build 0)  -->
<!DOCTYPE svg PUBLIC "-//W3C//DTD SVG 1.1//EN" "http://www.w3.org/Graphics/SVG/1.1/DTD/svg11.dtd">
<svg version="1.1"
	 id="svg2" inkscape:version="0.45" sodipodi:version="0.32" sodipodi:modified="true" xmlns:dc="http://purl.org/dc/elements/1.1/" xmlns:cc="http://web.resource.org/cc/" xmlns:inkscape="http://www.inkscape.org/namespaces/inkscape" xmlns:sodipodi="http://sodipodi.sourceforge.net/DTD/sodipodi-0.dtd" xmlns:svg="http://www.w3.org/2000/svg" xmlns:rdf="http://www.w3.org/1999/02/22-rdf-syntax-ns#"
	 xmlns="http://www.w3.org/2000/svg" xmlns:xlink="http://www.w3.org/1999/xlink" x="0px" y="0px" width="540px" height="600px"
	 viewBox="0 0 540 600" enable-background="new 0 0 540 600" xml:space="preserve">
<sodipodi:namedview  inkscape:current-layer="layer1" inkscape:document-units="px" inkscape:pageopacity="0.0" inkscape:window-y="24" inkscape:pageshadow="2" inkscape:window-x="0" inkscape:window-width="1280" inkscape:window-height="948" pagecolor="#ffffff" inkscape:cx="228.9225" inkscape:zoom="0.7" inkscape:cy="321.0075" width="540px" gridtolerance="10000" guidetolerance="10" height="600px" bordercolor="#666666" id="base" objecttolerance="10" borderopacity="1.0">
	</sodipodi:namedview>
<path id="path12935" fill="none" d="M162.877,6.666v177.143L7.163,478.094L35.02,272.38L162.877,6.666z"/>
<path id="path16823" sodipodi:nodetypes="ccccc" fill="#231F20" d="M35.893,276.818l61.493,22.476l3.031-5.177L36.65,270.126
	L35.893,276.818z"/>
<path id="path10991" sodipodi:nodetypes="cscscc" fill="#231F20" d="M2.053,485.667c0,0-0.505-4.293,0.505-11.869
	C3.568,466.222,32.61,272.02,32.61,272.02s6.566-7.829,5.051,2.02c-1.667,10.837-28.79,203.799-28.79,203.799L2.053,485.667z"/>
<path id="path12933" fill="none" d="M161.449,178.094l372.856,150L342.877,596.666L4.306,485.237L161.449,178.094z"/>
<path id="path13906" fill="#231F20" d="M100.02,300.237l213.214,78.929l4.284-2.145l-3.214-2.5L101.449,294.88L100.02,300.237z
	 M313.948,374.88l67.5-105.714l4.644,2.143l-67.5,107.143l27.5,210.715l-3.215,5.714l-2.857-3.214l-26.784-213.931L313.948,374.88z"
	/>
<path id="path14877" fill="#231F20" d="M312.676,374.802l2.835-0.603l2.68,2.176l-1.307,2.835l-3.382-0.022l-0.368-0.4
	L312.676,374.802z"/>
<path id="path10020" sodipodi:nodetypes="cccsscc" fill="#231F20" d="M531.12,327.073L342.664,591.418
	c-7.224-1.541-3.032,3.065-4.335,4.713c0,0,3.021,3.083,5.872,2.305c3.492-0.954,3.661-2.819,6.638-7.191
	c7.479-10.986,186.595-261.393,186.595-261.393L531.12,327.073z"/>
<path id="path7107" fill="none" d="M165.95,4.33l-2.021,175.767l369.715,146.471l-63.64-191.928L165.95,4.33z"/>
<path id="path15852" sodipodi:nodetypes="ccccc" fill="#231F20" d="M466.627,133.451L383.592,264.88l5.356,1.429l81.429-130
	L466.627,133.451z"/>
<path id="path4194" fill="#231F20" d="M472.278,133.629l66.923,192.939l-6.062,0.252L467.48,135.144
	C467.48,135.145,468.743,130.851,472.278,133.629z"/>
<path id="path11962" fill="#231F20" d="M37.156,274.041L165.192,10.896l-3.03-7.324L32.357,273.788L37.156,274.041z"/>
<path id="path6136" sodipodi:nodetypes="csscsc" fill="#231F20" d="M159.797,176.309c0.967,1.511,2.173,2.306,3.616,2.388
	c3.276,0.187,0.893-4.888,0.893-12.388s2.783-165.758,2.783-165.758s-5.104-3.35-5.104,6.472
	C161.984,16.844,159.975,176.487,159.797,176.309z"/>
<path id="path9049" sodipodi:nodetypes="ccccc" fill="#231F20" d="M5.714,482.321L340.109,591.13c2.148,2.28,2.372,4.356,0,6.161
	L3.502,488.005L5.714,482.321z"/>
<path id="path8078" sodipodi:nodetypes="ccccc" fill="#231F20" d="M160.142,175.803L1.8,483.899
	c-1.062,2.626,0.139,4.356,3.788,4.293l160.214-307.25L160.142,175.803z"/>
<path id="path3223" sodipodi:nodetypes="ccscc" fill="#231F20" d="M536.717,331.576L163.591,183.63c0,0-3.616-9.331,4.107-6.429
	c6.872,2.582,370.356,147.857,370.356,147.857S541.448,328.809,536.717,331.576z"/>
<path id="path5165" fill="#231F20" d="M162.919,178.328l2.815-178.181c0,0,2.857,0.179,2.857,4.286s-2.232,173.482-2.232,173.482
	S164.752,179.255,162.919,178.328z"/>
<path id="path2251" sodipodi:nodetypes="ccccc" fill="#231F20" d="M468.234,136.13c1.382-0.141,2.36-1.712,2.32-3.75L166.806,0.416
	c-0.141,1.586-0.138,2.957,1.429,6.25L468.234,136.13z"/>
</svg>
