<?xml version="1.0" encoding="utf-8"?>
<!-- Generator: Adobe Illustrator 18.0.0, SVG Export Plug-In . SVG Version: 6.00 Build 0)  -->
<!DOCTYPE svg PUBLIC "-//W3C//DTD SVG 1.1//EN" "http://www.w3.org/Graphics/SVG/1.1/DTD/svg11.dtd">
<svg version="1.1" id="Слой_2" xmlns="http://www.w3.org/2000/svg" xmlns:xlink="http://www.w3.org/1999/xlink" x="0px" y="0px"
	 viewBox="91 0 1411 1200" enable-background="new 91 0 1411 1200" xml:space="preserve">
<path fill="#ffffff"    d="M1411.9,328.4c-8.5-4-34.9-22.9-43.1-31.1
	c-8-8-34.4-37-34.4-37s13.7-3,23.4-6.4c9.7-3.4,53.2-25.6,64.4-34.4c11.2-8.9,47.3-41.8,62.1-61.3c15-19.6-8-13.3-15.8-7.2
	c-7.8,6.1-24.3,21.2-24.3,21.2s-3-6.4-6.9-3.8s-13.1,7.6-19.5,19.6c-6.4,11.9-20.5,21.3-33.2,23.9c-12.8,2.5-8.5-5.1-6.4-10.6
	s31.9-33.2,36.1-42.2c4.2-8.9-3.4-6.4-11-2.1s-19.6,14.5-19.6,14.5s12.8-20.5,20.5-32.8s25.1-48.6,31.5-64.4s-7.6-9.7-11.9-6.4
	c-4.2,3.4-7.6,8-13.3,17.5c-5.5,9.3-37.4,57.5-43.5,64.8c-5.9,7.2-13.7,8.9-13.7,8.9s2.1-6.8,8-15c5.9-8,23.9-36.6,22.6-45.6
	s-10.6,1.7-18.4,11.4c-7.6,9.7-20.5,31.1-26.4,40.1c-5.9,8.9-13.7,4.7-18.6-1.3c-4.9-5.9-1.4-35.7-0.1-49s-5.9-9.3-9.3-4.7
	c-3.4,4.7-8.5,21.3-11.4,26.8c-3,5.5-8,11.4-19.2-3c-11.2-14.4-5.9-70.7-5.1-80s-8.5-4.7-12.3,2.5s-3.8,17.5-7.2,34
	c-3.4,16.7-11.4,10.2-14.1,3.8c-2.5-6.4-2.1-9.7-3.8-21.3s-5.1-25.6-7.6-40.1s-11-12.8-14.5-9.3c-3.4,3.4-1.3,5.9-3,20.9
	s-11.9,4.7-15-2.5c-3.1-7.2-1.3-5.5-11.4-17.9c-10.2-12.3-15.4,1.3-12.8,15.8c2.5,14.5,5.9,25.1,5.9,25.1s-8-10.6-14.1-15.8
	s-11.4,5.1-8.9,12.3s7.6,13.3,11,20.9c3.4,7.6,6.4,20,9.7,33.2s38.4,55.8,38.4,55.8s-25.8-17.9-32.6-20.5c-6.8-2.5-4.7,6.8-5.9,5.9
	c-1.3-0.8-4.7-5.1-8.9,2.5c-4.2,7.6,6.4,33.6,8.9,46c2.5,12.3,18.4,32.3,18.4,32.3s-12.8,3.8-40.1,4.7c-0.6,0-1,0-1.6,0
	c-4.7-2.4-8.3-5.9-7.8-10.3c-1.7,1.4-1.4,4.1-0.8,5.9c-3-0.3-6.6-3.2-8.2-5.5c-0.3,2,1.4,4,2.5,5.5c-3.5-1.7-7.1-3.2-10.4-4.9
	c0.7,1.6,2,2.7,2.5,4.4c-2.8-1.1-5.8-3.2-8.2-4.9c0.4,1.1,1,2.1,1.4,3.2c-5.1-0.3-14.3-4.7-17.2-9c-2-3-3.7-7.1-3-10.7
	c0.4-2.5,1.8-3.7,3.5-4.9c-1.3,0.6-2.5,1.1-3.4,2.1c-1.7,2-2.7,4.7-3,7.1c-2.4-4.1-2.7-7.6-0.7-11.6c-0.8,1-2.3,2-3,3.2
	c-0.8,1.6-0.8,3.2-1.4,4.5c-1.4-2.4-0.8-5.2-1.8-7.6c-1.6,2.1-1,4.7-1.3,7.1c-2.7-1.4-3.5-6.5-2.3-8.9c-3.1,1.4-3.7,7.8-2.7,10.6
	c-2.5-2.1-4.1-6.6-4.1-10c-1.1,1.8,0.3,4,0,6.2c-2.8-1.7-6.2-7.9-7.3-11.2c0.7,3.7-1.4,7.6-1.1,11.6c-1.4-1.6-1.8-3.5-2.8-5.2
	c-1.4,2-0.8,8.9-0.1,11.2c-1.7-3.7-2.8-8.6-4.9-11.7c-1,1.6-1.4,3.4-1.8,5.2c-1-1.3-1-2.8-1.7-4.4c-2,1.4-0.4,4.9-1.4,6.8
	c-3-5.6-3-12.4-3.7-18.6c-2.5,2.1-2.7,6.9-5.5,8.5c-0.4-1.4-0.7-3.4-1.1-4.5c-0.8,1.6-1.8,2.7-2,4.5c-0.8-1.3-1-3.8-1.7-5.5
	c-3.2,0.1-3.8,5.6-3.8,8.3c-0.6-2.1-2.1-5.6-3.2-7.2c-0.7,5.5,1.3,11.7,0.4,16.8c-2.8-5.2-7.1-10.7-10.4-15.7c-1.6,2.8,0,7.3,1,10.3
	c-1.6-2.5-4.4-8.2-6.5-9.7c-0.3,3.2-0.6,7.8,0.4,10.7c-2.3-1.4-3.5-4.5-5.5-6.5c-0.4,3.2,0.6,6.1,2.3,8.6
	c-27.4-9.7-44.9-17.5-70.2-22.7c-32.8-6.8-64.4,1.3-89.5,11.4c-25.1,10.2-69.9,36.6-93.3,47.7c-23.4,11-29.8,16.7-74.1,19.6
	c-44.3,3-156.3-7.2-207-12.8c-50.7-5.6-84.7-1.3-97.1,4.2c-12.4,5.5-44.8,11.9-57.5,14.1c-12.8,2.1-5.5-2.5-39.7,19.6
	s-46.9,51.1-52.8,69.9c-5.9,18.8-0.8,42.6,4.2,46.9s14.5-5.9,14.5-5.9s-2.5,48.6,0,75c2.5,26.4,13.7,59.6,18.8,93.7
	c4.8,31.6-3,63.1-12.3,86c-8.6,17.6-33.7,52-50.3,68.9c-19.3,19.9-64.8,59-69.3,63.7c-4.5,4.5-7.3-1.1-6.8,36.3
	c0.6,37.4-6.8,110.1-13.1,148.8c-6.4,38.7-14.3,96.6-16,110.7c-1.3,13.8-5.8,16.7-4.1,25.1c1.7,8.5,1.7,8.5,1.7,8.5
	s-10.7,14.3-11.3,16.5c-0.6,2.3,7.9,11.3,9.6,11.3c1.7,0,5.1-4.5,9.6-2.8c4.5,1.7,10.7,13.7,14.3,31.2c3.4,17.6,10.2,22.7,16.5,25
	c6.4,2.3,9,1.7,12.4,2.8s6.8,3.4,6.8,3.4l52.2-2.8l5.1-1.7c0,0-3.4-8.5-20.5-18.2s-20-10.7-20-10.7s-23.7-35.7-25.4-55.1
	c-1.7-19.3,1.1-94.9,9.6-140.3s22.2-96,46-122.7s36.8-39.2,65.4-65.4c28.4-26.1,45.5-58.4,65.4-75c19.9-16.5,16-14.3,26.1-19.3
	c8.2-4.1,25.6-21.7,34.7-31.2l12.4-7.5c1.4,7.8,2,26.4,0,36.3c-3.4,17.6-12.4,79.5-20.5,99.4c-7.9,19.9-13.7,30.1-9,39.2
	c4.5,9,37.4,38,46,50c8.5,11.9,67.6,99.4,76.1,111.2c8.5,11.9,27.2,42.1,35.7,55.1c8.5,13,16.5,24.4,17.6,33.5
	c1.1,9-3.4,29.5,0,32.9c3.4,3.4,10.2,2.8,12.4-1.7c2.3-4.5,10.2-5.6,10.2-5.6s4.5,26.1,11.3,35.2c6.8,9,26.1,32.9,46,35.2
	c19.9,2.3,23.9-1.1,23.9-1.1s4-2.8,0-10.7s-23.9-48.3-28.4-55.6c-4.5-7.3-8.5-12.4-10.7-18.2c-2.3-5.6-21-34.6-30.1-46.6
	c-9-11.9-84.6-107.3-98.8-146c-14.3-38.7-10.7-51.7-11.3-63.7c-0.6-11.9-2.8-36.8,6.2-64.8c9-27.8,15.4-80,17.1-90.4
	c1.7-10.2,13.1-32.9,30.1-43.8c4.4-2.8,8.5-5.6,12.1-8.3c13.3,4.4,26.3,8.6,36,10.9c25.6,5.5,109.8,2.1,127.3-3.4
	c17.5-5.5,23-8.5,38.8-8.9c12.7-0.3,42.4-9,59.9-14.3c3.8,14.3,5.4,34.2,7.6,61c2.8,35.2,29.5,131.2,34,146
	c4.5,14.8,22.7,62.4,22.7,68.2c0,5.8-1.7,22.7-2.3,25.8c-0.6,3.1-5.1,9.5-8.5,16.2c-3.4,6.8-40.4,60.1-49.4,75
	c-9,14.8-33.5,43.8-38.7,50c-5.1,6.2-32.3,12.4-44.3,16c-11.9,3.4-5.6,8.5-2.8,9.6s19.9-0.6,19.9-0.6l-23.3,9c0,0-7.9,2.3-12.4,6.2
	c-4.5,4-13.7,21-17.1,42.6s8.5,30.6,8.5,30.6s3.4-2.3,6.8-6.8c3.4-4.5,35.2-27.8,43.2-35.2c7.9-7.3,21-12.4,22.7-17.1
	c1.7-4.5,9.6-6.2,16-11.9c6.2-5.6,20.5-18.2,24.4-28.9c4-10.7,42.6-69.9,52.2-86.3c9.6-16.5,31.2-28.9,43.8-43.2
	s10.2-30.1,12.4-37.7c2.3-7.6,7.9-18.5,7.3-24.7c-0.6-6.2-13.7-79.5-13.7-79.5s5.1,17.6,5.6,21.6c0.6,4,10.7,42.6,13.1,55.6
	c2.3,13.1,4,31.2,4,39.4c0,8.2,9,19.1,12.4,33.3c3.4,14.3,18.2,99.4,21,121s6.8,54.5,7.9,72.1s3.4,19.3,7.2,20.5
	c3.8,1.1,12.1-9,12.1-9s6.2-4,9.6,1.7c3.4,5.6,7.3,22.7,7.3,22.7s9.6,13.1,14.3,14.3c4.5,1.1,24.4,1.1,38.7,0
	c14.3-1.1,31.8-4.5,32.9-7.9s-2.8-3.4-13.1-10.2c-10.2-6.8-33.5-19.9-34-21c-0.6-1.1-2.3-9-7.9-14.3c-5.6-5.1-7.9-2.8-26.1-42.1
	c-18.2-39.2-28.4-124.4-28.4-146c0-21.6,0.6-40.9,0.6-47.4s6.2-9.9,0.6-41.2c-5.6-31.2-8.5-78.9-4.5-130.6
	c2.7-35.2,8.9-61.4,13.1-77.4c1.1-0.4,4-15,4.1-15.5l0,0c2.3-9.3,5.9-19.3,10.4-20.6c7.2-2.1,28.1-15.8,38.4-31.1
	c10.2-15.4,13.7-49,13.7-49s3-2.1,7.2-6.4c4.2-4.2,47.7-38.4,55.8-41.8c8-3.4,39.7-14.1,49.8-15.4c10.2-1.3,35.3-16.7,35.3-16.7
	s0.4,0.8,1.1,2.7c-0.1,1.1-0.4,2.1-0.6,3c-1.3,4.9-1.8,10.3-4.1,15.1c1.7-3.5,5.6-6.9,7.9-10.7c0,0.1,0.1,0.3,0.1,0.3
	c-1.7,4.5-3.7,9.5-4.1,13.8c1.6-3.2,3.7-6.5,5.8-9.7c0.4,0.8,0.8,1.8,1.3,2.8c-0.6,1.1-1,2.4-1.6,3.5c-1.8,4.7-3.4,9.7-5.9,14.1
	c1.8-1.8,4-3.2,5.5-5.4s2.7-4.9,4-7.3c0.1,0.1,0.1,0.4,0.3,0.6c0.3,0.7,0.6,1.3,0.7,1.8c-1.6,5.9-3.7,13-7.3,16.9
	c1.8-1.6,3.8-2.8,5.5-4.9c1.4-1.7,2.8-3.5,4.1-5.4c0.1,0.3,0.1,0.6,0.3,1c-0.6,1.4-1,2.7-1.4,4c-2,5.8-4.5,11.6-8.3,16.4
	c4.4-4.7,7.3-10.7,10.9-15.5c0.1,0.6,0.1,1.3,0.3,1.8c-0.8,3-2.8,6.4-3.8,8.9c-2.5,6.4-5.4,13.1-9.2,18.8c4.2,1,9-13.8,13.1-18.9
	c0,0.8,0,1.7-0.1,2.5c-1.7,4-4,7.8-5.9,11.4c-3.1,6.1-9,14.1-9.5,20.9c2-0.8,4.4-6.9,5.6-9c1.6-2.3,5.2-7.8,8.5-9.2
	c-0.1,1-0.3,2-0.6,3c-1.8,2.7-4,5.2-5.8,7.8c-2.4,3.5-8.5,11.6-7.9,16c3-2.1,6.5-9.7,10.4-11c-0.4,1.3-0.7,2.5-1.1,3.8
	c-0.3,0.4-0.7,0.7-1,1c-2.1,2.5-4,5.1-5.6,7.9c-3.7,5.9-8.8,15.7-8.3,22.7c2.1-3,3.4-8.2,5.4-11.7c1.8-3.4,3.8-6.5,6.1-9.3
	c-0.3,1-0.7,2-1,2.8c-0.6,1.7-1,3.4-1.1,4.9c-1.7,3-3.4,5.8-4.4,8.8c-2.5,6.8-5.8,15.2-5.6,22.6c2.7-7.6,8-14.3,11.4-21.5
	c0.1,0.4,0.3,0.8,0.4,1.1c-2.4,8-6.9,16.5-6.1,24.8c2.7-6.9,5.2-13.8,8.2-20.6c0.3,0.6,0.6,1,0.8,1.6c-0.1,2.1-0.3,4.1-0.6,5.6
	c-0.6,4.5-0.8,9.5-1.8,13.8c0.7-1.1,1.6-2.4,2.1-3.4c1.7-3.4,2.8-6.6,4.7-9.9c0.4,0.4,0.8,0.7,1.3,1.1c0.4,5.4,0,11.2-0.8,16.5
	c1.1-3.1,2.8-6.5,3.7-9c0.6-1.7,1.3-3.2,2-4.8c1,0.4,2,0.7,3,1c0.1,2.1,0.3,4.2-0.1,6.2c0.6-2,1.3-3.8,2-5.8
	c1.7,0.3,3.4,0.6,4.9,0.7c-0.1,3.2-1.1,6.9-0.4,9.7c0.3,0.1,0.6,0.1,1,0c1.1-3,1.3-6.4,1.7-9.6c1.1,0,2.3,0,3.2-0.1
	c0.6,0,1-0.3,1.4-0.4c0.4,2.4,0.7,4.7,0.6,6.9c0.8-2.1,1.8-4.4,2.4-6.2c0.4-2,0.7-3.7,0.8-5.4c0.6-1.4,1.1-2.8,1.7-4.4
	c1,4.1,1.6,9,1.1,13.3c0.4-1.3,0.8-2.5,1-3.7c1.1-4.7,1.7-9,1.6-14c0-3-0.8-5.8-2-8.6c0-0.6-0.1-1.1-0.1-1.8
	c1.1,1.3,2.3,2.5,3.2,3.8c1.6,2,3.4,4.4,4.1,6.8c0.6,1.7,0.1,3.4,1,5.1c-0.1-6.4-1.1-11.6-3-17.5c-1.1-4-3.8-7.2-6.1-10.6
	c-0.1-1.8-0.1-3.7-0.1-5.5c2,0.8,4,2.4,5.2,3.1c0-3.4-3.7-7.5-4.9-10.7c-0.1-0.3-0.3-0.6-0.3-1c-0.1-10.2,0.1-20.6,1.1-27.1
	c2.5-15,5.9-18.4,5.9-18.4s13.7,1.7,21.3-0.4c7.6-2.1,16.2-2.1,23.4-8c7.2-5.9,33.2-20.9,42.2-21.3c8.9-0.4,15.8,7.2,26.8,19.2
	s20.5,15.8,26.8,13.7s20-10.6,20-10.6s4.2,5.1,11.4,7.2c7.2,2.1,17.1-1.3,26.4-11.9s11.9-43.1,12.8-50.7
	c0.8-7.6-10.6-31.1-19.6-42.6C1458.4,364.7,1420.4,332.3,1411.9,328.4z"/>
</svg>
