<?xml version="1.0" encoding="utf-8"?>
<!-- Generator: Adobe Illustrator 16.0.4, SVG Export Plug-In . SVG Version: 6.00 Build 0)  -->
<!DOCTYPE svg PUBLIC "-//W3C//DTD SVG 1.1//EN" "http://www.w3.org/Graphics/SVG/1.1/DTD/svg11.dtd">
<svg version="1.1" id="svg2" xmlns:svg="http://www.w3.org/2000/svg"
	 xmlns="http://www.w3.org/2000/svg" xmlns:xlink="http://www.w3.org/1999/xlink" x="0px" y="0px" width="840.281px"
	 height="831.629px" viewBox="0 0 840.281 831.629" enable-background="new 0 0 840.281 831.629" xml:space="preserve">
<path id="path3263" fill="none" stroke="#231F20" stroke-width="8" stroke-linejoin="bevel" d="M8,329.495l320.417,494.113
	l74.645-465.58L8,329.495z"/>
<path id="path3246" fill="none" stroke="#231F20" stroke-width="8" stroke-linejoin="bevel" d="M832.279,526.924L328.394,823.631
	l74.669-465.603L832.279,526.924z"/>
<path id="path3265" fill="none" stroke="#231F20" stroke-width="8" stroke-linejoin="bevel" d="M8,329.495L543.109,7.998
	l-140.046,350.03L8,329.495z"/>
<path id="path3261" fill="none" stroke="#231F20" stroke-width="8" stroke-linejoin="bevel" d="M832.24,526.924L543.109,7.998
	l-140.046,350.03L832.24,526.924z"/>
<path id="path3240" fill="none" stroke="#231F20" stroke-width="8" stroke-linejoin="round" d="M8,329.495l320.417,494.113
	l145.644-281.58L8,329.495z"/>
<path id="path3244" fill="none" stroke="#231F20" stroke-width="8" stroke-linejoin="round" d="M832.279,526.924L328.394,823.631
	l145.668-281.604L832.279,526.924z"/>
<path id="path3242" fill="none" stroke="#231F20" stroke-width="8" stroke-linejoin="round" d="M832.24,526.924L543.109,7.998
	l-69.047,534.03L832.24,526.924z"/>
</svg>
