<?xml version="1.0" encoding="utf-8"?>
<!-- Generator: Adobe Illustrator 15.1.0, SVG Export Plug-In . SVG Version: 6.00 Build 0)  -->
<!DOCTYPE svg PUBLIC "-//W3C//DTD SVG 1.1//EN" "http://www.w3.org/Graphics/SVG/1.1/DTD/svg11.dtd">
<svg version="1.1" id="Mercury" xmlns="http://www.w3.org/2000/svg" xmlns:xlink="http://www.w3.org/1999/xlink" x="0px" y="0px"
	 width="800px" height="600px" viewBox="0 0 800 600" enable-background="new 0 0 800 600" xml:space="preserve">
<g>
	<defs>
		<rect id="SVGID_1_" x="-898.695" y="-381.161" width="5916.225" height="4437.17"/>
	</defs>
	<clipPath id="SVGID_2_">
		<use xlink:href="#SVGID_1_"  overflow="visible"/>
	</clipPath>
	<path clip-path="url(#SVGID_2_)" fill="#A7A9AC" d="M634.439,295.406c0,128.626-104.273,232.899-232.9,232.899
		c-128.63,0-232.899-104.273-232.899-232.899c0-128.623,104.27-232.896,232.899-232.896
		C530.166,62.51,634.439,166.783,634.439,295.406"/>
	<g opacity="0.1" clip-path="url(#SVGID_2_)">
		<g>
			<defs>
				<rect id="SVGID_3_" x="359.898" y="187.041" width="47.554" height="47.554"/>
			</defs>
			<clipPath id="SVGID_4_">
				<use xlink:href="#SVGID_3_"  overflow="visible"/>
			</clipPath>
			<path clip-path="url(#SVGID_4_)" fill="#464363" d="M407.452,210.812c0,13.133-10.641,23.78-23.773,23.78
				c-13.139,0-23.78-10.647-23.78-23.78c0-13.125,10.642-23.773,23.78-23.773C396.812,187.038,407.452,197.687,407.452,210.812"/>
		</g>
	</g>
	<g opacity="0.1" clip-path="url(#SVGID_2_)">
		<g>
			<defs>
				<rect id="SVGID_5_" x="359.898" y="187.041" width="27.388" height="47.554"/>
			</defs>
			<clipPath id="SVGID_6_">
				<use xlink:href="#SVGID_5_"  overflow="visible"/>
			</clipPath>
			<path clip-path="url(#SVGID_6_)" fill="#464363" d="M367.12,210.812c0-11.89,8.765-21.657,20.166-23.414
				c-1.185-0.176-2.378-0.359-3.61-0.359c-13.136,0-23.777,10.648-23.777,23.773c0,13.126,10.642,23.78,23.777,23.78
				c1.232,0,2.426-0.189,3.61-0.366C375.885,232.476,367.12,222.704,367.12,210.812"/>
		</g>
	</g>
	<g opacity="0.1" clip-path="url(#SVGID_2_)">
		<g>
			<defs>
				<rect id="SVGID_7_" x="389.268" y="128.346" width="24.55" height="24.55"/>
			</defs>
			<clipPath id="SVGID_8_">
				<use xlink:href="#SVGID_7_"  overflow="visible"/>
			</clipPath>
			<path clip-path="url(#SVGID_8_)" fill="#464363" d="M413.814,140.621c0,6.783-5.494,12.278-12.275,12.278
				c-6.784,0-12.271-5.495-12.271-12.278c0-6.779,5.487-12.271,12.271-12.271C408.32,128.35,413.814,133.842,413.814,140.621"/>
		</g>
	</g>
	<g opacity="0.1" clip-path="url(#SVGID_2_)">
		<g>
			<defs>
				<rect id="SVGID_9_" x="389.268" y="128.346" width="14.136" height="24.55"/>
			</defs>
			<clipPath id="SVGID_10_">
				<use xlink:href="#SVGID_9_"  overflow="visible"/>
			</clipPath>
			<path clip-path="url(#SVGID_10_)" fill="#464363" d="M392.992,140.621c0-6.145,4.525-11.186,10.411-12.089
				c-0.611-0.091-1.227-0.183-1.861-0.183c-6.779,0-12.274,5.492-12.274,12.271c0,6.783,5.495,12.278,12.274,12.278
				c0.635,0,1.25-0.098,1.861-0.184C397.518,151.813,392.992,146.768,392.992,140.621"/>
		</g>
	</g>
	<g opacity="0.1" clip-path="url(#SVGID_2_)">
		<g>
			<defs>
				<rect id="SVGID_11_" x="210.582" y="265.232" width="84.905" height="84.906"/>
			</defs>
			<clipPath id="SVGID_12_">
				<use xlink:href="#SVGID_11_"  overflow="visible"/>
			</clipPath>
			<path clip-path="url(#SVGID_12_)" fill="#464363" d="M295.487,307.681c0,23.453-19.004,42.458-42.456,42.458
				c-23.441,0-42.449-19.005-42.449-42.458c0-23.444,19.008-42.455,42.449-42.455C276.483,265.226,295.487,284.236,295.487,307.681"
				/>
		</g>
	</g>
	<g opacity="0.1" clip-path="url(#SVGID_2_)">
		<g>
			<defs>
				<rect id="SVGID_13_" x="210.582" y="265.232" width="48.897" height="84.906"/>
			</defs>
			<clipPath id="SVGID_14_">
				<use xlink:href="#SVGID_13_"  overflow="visible"/>
			</clipPath>
			<path clip-path="url(#SVGID_14_)" fill="#464363" d="M223.468,307.681c0-21.237,15.647-38.679,36.016-41.804
				c-2.121-0.326-4.238-0.651-6.452-0.651c-23.441,0-42.456,19.011-42.456,42.455c0,23.453,19.015,42.458,42.456,42.458
				c2.214,0,4.331-0.326,6.452-0.652C239.115,346.368,223.468,328.92,223.468,307.681"/>
		</g>
	</g>
	<g opacity="0.1" clip-path="url(#SVGID_2_)">
		<g>
			<defs>
				<rect id="SVGID_15_" x="501.202" y="273.09" width="54.813" height="54.808"/>
			</defs>
			<clipPath id="SVGID_16_">
				<use xlink:href="#SVGID_15_"  overflow="visible"/>
			</clipPath>
			<path clip-path="url(#SVGID_16_)" fill="#464363" d="M556.011,300.494c0,15.141-12.269,27.408-27.402,27.408
				c-15.132,0-27.41-12.268-27.41-27.408c0-15.137,12.278-27.404,27.41-27.404C543.742,273.09,556.011,285.357,556.011,300.494"/>
		</g>
	</g>
	<g opacity="0.1" clip-path="url(#SVGID_2_)">
		<g>
			<defs>
				<rect id="SVGID_17_" x="501.202" y="273.09" width="31.563" height="54.808"/>
			</defs>
			<clipPath id="SVGID_18_">
				<use xlink:href="#SVGID_17_"  overflow="visible"/>
			</clipPath>
			<path clip-path="url(#SVGID_18_)" fill="#464363" d="M509.523,300.494c0-13.711,10.101-24.967,23.242-26.984
				c-1.37-0.212-2.735-0.42-4.157-0.42c-15.138,0-27.406,12.268-27.406,27.404c0,15.141,12.269,27.408,27.406,27.408
				c1.422,0,2.787-0.207,4.157-0.42C519.624,325.46,509.523,314.205,509.523,300.494"/>
		</g>
	</g>
</g>
<g>
	<defs>
		<path id="SVGID_19_" d="M168.646,295.409c0,128.626,104.263,232.896,232.896,232.896c128.627,0,232.895-104.271,232.895-232.896
			c0-128.633-104.268-232.896-232.895-232.896C272.909,62.514,168.646,166.776,168.646,295.409"/>
	</defs>
	<clipPath id="SVGID_20_">
		<use xlink:href="#SVGID_19_"  overflow="visible"/>
	</clipPath>
	<g opacity="0.6" clip-path="url(#SVGID_20_)">
		<g>
			<defs>
				<rect id="SVGID_21_" x="219.634" y="422.063" width="84.912" height="84.904"/>
			</defs>
			<clipPath id="SVGID_22_">
				<use xlink:href="#SVGID_21_"  overflow="visible"/>
			</clipPath>
			<g opacity="0.1" clip-path="url(#SVGID_22_)">
				<g>
					<defs>
						<rect id="SVGID_23_" x="219.634" y="422.063" width="84.912" height="84.904"/>
					</defs>
					<clipPath id="SVGID_24_">
						<use xlink:href="#SVGID_23_"  overflow="visible"/>
					</clipPath>
					<path clip-path="url(#SVGID_24_)" fill="#464363" d="M304.546,464.512c0,23.448-19.001,42.456-42.456,42.456
						c-23.448,0-42.456-19.008-42.456-42.456c0-23.442,19.008-42.453,42.456-42.453
						C285.545,422.059,304.546,441.069,304.546,464.512"/>
				</g>
			</g>
			<g opacity="0.1" clip-path="url(#SVGID_22_)">
				<g>
					<defs>
						<rect id="SVGID_25_" x="219.634" y="422.063" width="48.904" height="84.904"/>
					</defs>
					<clipPath id="SVGID_26_">
						<use xlink:href="#SVGID_25_"  overflow="visible"/>
					</clipPath>
					<path clip-path="url(#SVGID_26_)" fill="#464363" d="M232.526,464.512c0-21.236,15.641-38.677,36.012-41.805
						c-2.117-0.322-4.242-0.648-6.445-0.648c-23.451,0-42.459,19.011-42.459,42.453c0,23.448,19.008,42.456,42.459,42.456
						c2.203,0,4.328-0.321,6.445-0.648C248.167,503.188,232.526,485.754,232.526,464.512"/>
				</g>
			</g>
		</g>
	</g>
	<g opacity="0.1" clip-path="url(#SVGID_20_)">
		<g>
			<defs>
				<rect id="SVGID_27_" x="513.56" y="401.66" width="84.904" height="84.903"/>
			</defs>
			<clipPath id="SVGID_28_">
				<use xlink:href="#SVGID_27_"  overflow="visible"/>
			</clipPath>
			<path clip-path="url(#SVGID_28_)" fill="#464363" d="M598.464,444.113c0,23.44-19,42.456-42.456,42.456
				c-23.44,0-42.445-19.016-42.445-42.456c0-23.445,19.005-42.457,42.445-42.457C579.464,401.656,598.464,420.668,598.464,444.113"
				/>
		</g>
	</g>
	<g opacity="0.1" clip-path="url(#SVGID_20_)">
		<g>
			<defs>
				<rect id="SVGID_29_" x="513.56" y="401.66" width="48.896" height="84.903"/>
			</defs>
			<clipPath id="SVGID_30_">
				<use xlink:href="#SVGID_29_"  overflow="visible"/>
			</clipPath>
			<path clip-path="url(#SVGID_30_)" fill="#464363" d="M526.448,444.113c0-21.239,15.647-38.674,36.016-41.807
				c-2.125-0.324-4.25-0.65-6.453-0.65c-23.44,0-42.459,19.012-42.459,42.457c0,23.44,19.019,42.456,42.459,42.456
				c2.203,0,4.328-0.325,6.453-0.651C542.096,482.795,526.448,465.348,526.448,444.113"/>
		</g>
	</g>
</g>
<g opacity="0.2">
	<g>
		<defs>
			<rect id="SVGID_31_" x="369.827" y="122.621" width="266.479" height="405.685"/>
		</defs>
		<clipPath id="SVGID_32_">
			<use xlink:href="#SVGID_31_"  overflow="visible"/>
		</clipPath>
		<path clip-path="url(#SVGID_32_)" d="M403.403,528.306c128.63,0,232.903-104.273,232.903-232.899
			c0-68.546-29.619-130.172-76.749-172.785c37.359,41.303,60.406,96.067,60.108,156.153
			c-0.62,128.96-122.675,247.904-249.842,247.126"/>
	</g>
</g>
</svg>
