<?xml version="1.0" encoding="utf-8"?>
<!-- Generator: Adobe Illustrator 15.1.0, SVG Export Plug-In . SVG Version: 6.00 Build 0)  -->
<!DOCTYPE svg PUBLIC "-//W3C//DTD SVG 1.1//EN" "http://www.w3.org/Graphics/SVG/1.1/DTD/svg11.dtd">
<svg version="1.1" id="Mars" xmlns="http://www.w3.org/2000/svg" xmlns:xlink="http://www.w3.org/1999/xlink" x="0px" y="0px"
	 width="800px" height="600px" viewBox="0 0 800 600" enable-background="new 0 0 800 600" xml:space="preserve">
<g>
	<defs>
		<rect id="SVGID_1_" x="-376.88" y="-998" width="3591.759" height="2780"/>
	</defs>
	<clipPath id="SVGID_2_">
		<use xlink:href="#SVGID_1_"  overflow="visible"/>
	</clipPath>
	<path clip-path="url(#SVGID_2_)" fill="#E26240" d="M632.003,295.044c0,125.163-102.919,226.621-229.884,226.621
		c-126.96,0-229.887-101.458-229.887-226.621c0-125.159,102.927-226.619,229.887-226.619
		C529.084,68.425,632.003,169.885,632.003,295.044"/>
	<g opacity="0.2" clip-path="url(#SVGID_2_)">
		<g>
			<defs>
				<rect id="SVGID_3_" x="368.972" y="126.914" width="263.031" height="394.757"/>
			</defs>
			<clipPath id="SVGID_4_">
				<use xlink:href="#SVGID_3_"  overflow="visible"/>
			</clipPath>
			<path clip-path="url(#SVGID_4_)" d="M402.119,521.665c126.963,0,229.884-101.458,229.884-226.62
				c0-66.696-29.232-126.66-75.75-168.129c36.872,40.192,59.332,93.481,59.332,151.94c0,125.162-119.65,240.47-246.609,240.47"/>
		</g>
	</g>
	<g opacity="0.8" clip-path="url(#SVGID_2_)">
		<g>
			<defs>
				<rect id="SVGID_5_" x="315.379" y="123.466" width="33.849" height="34.931"/>
			</defs>
			<clipPath id="SVGID_6_">
				<use xlink:href="#SVGID_5_"  overflow="visible"/>
			</clipPath>
			<g opacity="0.1" clip-path="url(#SVGID_6_)">
				<g>
					<defs>
						<rect id="SVGID_7_" x="315.379" y="123.466" width="33.849" height="34.931"/>
					</defs>
					<clipPath id="SVGID_8_">
						<use xlink:href="#SVGID_7_"  overflow="visible"/>
					</clipPath>
					<path clip-path="url(#SVGID_8_)" fill="#464363" d="M349.228,140.932c0,9.646-7.575,17.467-16.927,17.467
						c-9.344,0-16.922-7.82-16.922-17.467c0-9.645,7.578-17.466,16.922-17.466C341.652,123.466,349.228,131.287,349.228,140.932"/>
				</g>
			</g>
			<g opacity="0.1" clip-path="url(#SVGID_6_)">
				<g>
					<defs>
						<rect id="SVGID_9_" x="315.379" y="123.466" width="19.492" height="34.931"/>
					</defs>
					<clipPath id="SVGID_10_">
						<use xlink:href="#SVGID_9_"  overflow="visible"/>
					</clipPath>
					<path clip-path="url(#SVGID_10_)" fill="#464363" d="M320.517,140.932c0-8.738,6.235-15.914,14.353-17.199
						c-0.845-0.134-1.688-0.267-2.568-0.267c-9.347,0-16.926,7.821-16.926,17.466c0,9.646,7.579,17.467,16.926,17.467
						c0.881,0,1.724-0.132,2.568-0.266C326.752,156.847,320.517,149.671,320.517,140.932"/>
				</g>
			</g>
		</g>
	</g>
	<g opacity="0.8" clip-path="url(#SVGID_2_)">
		<g>
			<defs>
				<rect id="SVGID_11_" x="569.792" y="250.604" width="32.708" height="33.755"/>
			</defs>
			<clipPath id="SVGID_12_">
				<use xlink:href="#SVGID_11_"  overflow="visible"/>
			</clipPath>
			<g opacity="0.1" clip-path="url(#SVGID_12_)">
				<g>
					<defs>
						<rect id="SVGID_13_" x="569.792" y="250.604" width="32.708" height="33.755"/>
					</defs>
					<clipPath id="SVGID_14_">
						<use xlink:href="#SVGID_13_"  overflow="visible"/>
					</clipPath>
					<path clip-path="url(#SVGID_14_)" fill="#464363" d="M602.5,267.479c0,9.323-7.324,16.88-16.357,16.88
						c-9.029,0-16.351-7.557-16.351-16.88c0-9.321,7.321-16.878,16.351-16.878C595.176,250.602,602.5,258.158,602.5,267.479"/>
				</g>
			</g>
			<g opacity="0.1" clip-path="url(#SVGID_12_)">
				<g>
					<defs>
						<rect id="SVGID_15_" x="569.792" y="250.604" width="18.832" height="33.755"/>
					</defs>
					<clipPath id="SVGID_16_">
						<use xlink:href="#SVGID_15_"  overflow="visible"/>
					</clipPath>
					<path clip-path="url(#SVGID_16_)" fill="#464363" d="M574.755,267.479c0-8.441,6.023-15.378,13.872-16.621
						c-0.814-0.128-1.629-0.257-2.482-0.257c-9.033,0-16.351,7.557-16.351,16.878c0,9.323,7.317,16.88,16.351,16.88
						c0.854,0,1.668-0.131,2.482-0.259C580.778,282.859,574.755,275.922,574.755,267.479"/>
				</g>
			</g>
		</g>
	</g>
	<g opacity="0.8" clip-path="url(#SVGID_2_)">
		<g>
			<defs>
				<rect id="SVGID_17_" x="282.669" y="390.462" width="32.71" height="33.753"/>
			</defs>
			<clipPath id="SVGID_18_">
				<use xlink:href="#SVGID_17_"  overflow="visible"/>
			</clipPath>
			<g opacity="0.1" clip-path="url(#SVGID_18_)">
				<g>
					<defs>
						<rect id="SVGID_19_" x="282.669" y="390.462" width="32.71" height="33.753"/>
					</defs>
					<clipPath id="SVGID_20_">
						<use xlink:href="#SVGID_19_"  overflow="visible"/>
					</clipPath>
					<path clip-path="url(#SVGID_20_)" fill="#464363" d="M315.379,407.339c0,9.325-7.323,16.883-16.358,16.883
						c-9.026,0-16.352-7.558-16.352-16.883c0-9.32,7.325-16.877,16.352-16.877C308.056,390.462,315.379,398.019,315.379,407.339"/>
				</g>
			</g>
			<g opacity="0.1" clip-path="url(#SVGID_18_)">
				<g>
					<defs>
						<rect id="SVGID_21_" x="282.669" y="390.462" width="18.837" height="33.753"/>
					</defs>
					<clipPath id="SVGID_22_">
						<use xlink:href="#SVGID_21_"  overflow="visible"/>
					</clipPath>
					<path clip-path="url(#SVGID_22_)" fill="#464363" d="M287.637,407.339c0-8.438,6.021-15.378,13.867-16.618
						c-0.812-0.13-1.629-0.259-2.478-0.259c-9.035,0-16.357,7.557-16.357,16.877c0,9.325,7.322,16.883,16.357,16.883
						c0.849,0,1.665-0.133,2.478-0.264C293.658,422.718,287.637,415.783,287.637,407.339"/>
				</g>
			</g>
		</g>
	</g>
	<g opacity="0.1" clip-path="url(#SVGID_2_)">
		<g>
			<defs>
				<rect id="SVGID_23_" x="419.545" y="146.685" width="98.026" height="100.917"/>
			</defs>
			<clipPath id="SVGID_24_">
				<use xlink:href="#SVGID_23_"  overflow="visible"/>
			</clipPath>
			<path clip-path="url(#SVGID_24_)" fill="#464363" d="M449.173,146.682l-26.352,25.099l-3.279,30.332l22.537,34.508l33.438-9.701
				l12.667,20.684c0,0,18.946-18.386,21.386-22.005c2.433-3.619,8.001-40.218,8.001-41.788s-6.896-31.373-8.001-31.373
				c-1.115,0-34.561,4.226-36.078,4.466c-1.521,0.237-16.211,2.374-16.211,0c0-2.375-1.523-10.221-1.523-10.221H449.173z"/>
		</g>
	</g>
	<g opacity="0.1" clip-path="url(#SVGID_2_)">
		<g>
			<defs>
				<rect id="SVGID_25_" x="466.794" y="152.434" width="43.286" height="5.569"/>
			</defs>
			<clipPath id="SVGID_26_">
				<use xlink:href="#SVGID_25_"  overflow="visible"/>
			</clipPath>
			<path clip-path="url(#SVGID_26_)" fill="#464363" d="M481.937,156.902c1.069-0.166,17.841-2.296,28.144-3.553
				c-0.224-0.543-0.402-0.914-0.514-0.914c-1.113,0-34.551,4.227-36.074,4.467c-0.628,0.096-3.529,0.524-6.703,0.816
				C470.171,158.625,480.664,157.103,481.937,156.902"/>
		</g>
	</g>
	<g opacity="0.1" clip-path="url(#SVGID_2_)">
		<g>
			<defs>
				<rect id="SVGID_27_" x="419.545" y="146.685" width="36.495" height="89.935"/>
			</defs>
			<clipPath id="SVGID_28_">
				<use xlink:href="#SVGID_27_"  overflow="visible"/>
			</clipPath>
			<path clip-path="url(#SVGID_28_)" fill="#464363" d="M427.986,202.11l3.281-30.33l24.771-23.596
				c-0.167-0.895-0.278-1.503-0.278-1.503h-6.587l-26.351,25.099l-3.28,30.33l22.537,34.51l7.099-2.061L427.986,202.11z"/>
		</g>
	</g>
	<g opacity="0.1" clip-path="url(#SVGID_2_)">
		<g>
			<defs>
				<rect id="SVGID_29_" x="476.791" y="226.919" width="16.671" height="20.684"/>
			</defs>
			<clipPath id="SVGID_30_">
				<use xlink:href="#SVGID_29_"  overflow="visible"/>
			</clipPath>
			<path clip-path="url(#SVGID_30_)" fill="#464363" d="M483.963,226.917l-7.172,2.081l11.394,18.604c0,0,2.249-2.184,5.279-5.173
				L483.963,226.917z"/>
		</g>
	</g>
	<g opacity="0.1" clip-path="url(#SVGID_2_)">
		<g>
			<defs>
				<rect id="SVGID_31_" x="440.905" y="436.37" width="69.175" height="29.799"/>
			</defs>
			<clipPath id="SVGID_32_">
				<use xlink:href="#SVGID_31_"  overflow="visible"/>
			</clipPath>
			<path clip-path="url(#SVGID_32_)" fill="#464363" d="M461.813,436.366l-18.593,7.415l-2.317,8.954l15.902,10.19l23.602-2.865
				l8.933,6.114c0,0,13.37-5.436,15.086-6.503c1.72-1.068,5.65-11.877,5.65-12.344c0-0.456-4.866-9.262-5.65-9.262
				c-0.786,0-24.38,1.244-25.454,1.317c-1.073,0.071-11.44,0.705-11.44,0c0-0.702-1.071-3.018-1.071-3.018H461.813z"/>
		</g>
	</g>
	<g opacity="0.1" clip-path="url(#SVGID_2_)">
		<g>
			<defs>
				<rect id="SVGID_33_" x="474.247" y="438.066" width="30.537" height="1.643"/>
			</defs>
			<clipPath id="SVGID_34_">
				<use xlink:href="#SVGID_33_"  overflow="visible"/>
			</clipPath>
			<path clip-path="url(#SVGID_34_)" fill="#464363" d="M484.931,439.384c0.752-0.05,12.585-0.676,19.854-1.051
				c-0.15-0.157-0.284-0.267-0.358-0.267c-0.786,0-24.38,1.244-25.453,1.317c-0.444,0.031-2.49,0.154-4.726,0.242
				C476.626,439.895,484.034,439.448,484.931,439.384"/>
		</g>
	</g>
	<g opacity="0.1" clip-path="url(#SVGID_2_)">
		<g>
			<defs>
				<rect id="SVGID_35_" x="440.905" y="436.37" width="25.754" height="26.556"/>
			</defs>
			<clipPath id="SVGID_36_">
				<use xlink:href="#SVGID_35_"  overflow="visible"/>
			</clipPath>
			<path clip-path="url(#SVGID_36_)" fill="#464363" d="M446.864,452.735l2.317-8.958l17.478-6.969
				c-0.118-0.264-0.199-0.442-0.199-0.442h-4.645l-18.599,7.411l-2.312,8.958l15.896,10.19l5.02-0.607L446.864,452.735z"/>
		</g>
	</g>
	<g opacity="0.1" clip-path="url(#SVGID_2_)">
		<g>
			<defs>
				<rect id="SVGID_37_" x="481.305" y="460.066" width="11.759" height="6.103"/>
			</defs>
			<clipPath id="SVGID_38_">
				<use xlink:href="#SVGID_37_"  overflow="visible"/>
			</clipPath>
			<path clip-path="url(#SVGID_38_)" fill="#464363" d="M486.363,460.061l-5.062,0.615l8.039,5.493c0,0,1.589-0.638,3.727-1.523
				L486.363,460.061z"/>
		</g>
	</g>
	<g opacity="0.1" clip-path="url(#SVGID_2_)">
		<g>
			<defs>
				<rect id="SVGID_39_" x="181.132" y="246.518" width="65.521" height="93.481"/>
			</defs>
			<clipPath id="SVGID_40_">
				<use xlink:href="#SVGID_39_"  overflow="visible"/>
			</clipPath>
			<path clip-path="url(#SVGID_40_)" fill="#464363" d="M200.934,246.516l-17.607,23.25l-2.197,28.092l15.063,31.968l22.351-8.985
				l8.468,19.158c0,0,12.66-17.028,14.291-20.381c1.624-3.355,5.351-37.257,5.351-38.712c0-1.454-4.61-29.06-5.351-29.06
				c-0.746,0-23.095,3.915-24.111,4.138c-1.019,0.222-10.839,2.199-10.839,0c0-2.201-1.018-9.468-1.018-9.468H200.934z"/>
		</g>
	</g>
	<g opacity="0.1" clip-path="url(#SVGID_2_)">
		<g>
			<defs>
				<rect id="SVGID_41_" x="212.71" y="251.846" width="28.934" height="5.159"/>
			</defs>
			<clipPath id="SVGID_42_">
				<use xlink:href="#SVGID_41_"  overflow="visible"/>
			</clipPath>
			<path clip-path="url(#SVGID_42_)" fill="#464363" d="M222.835,255.981c0.714-0.156,11.919-2.126,18.807-3.289
				c-0.142-0.505-0.27-0.847-0.341-0.847c-0.746,0-23.093,3.915-24.109,4.135c-0.422,0.095-2.362,0.485-4.481,0.756
				C214.969,257.577,221.983,256.167,222.835,255.981"/>
		</g>
	</g>
	<g opacity="0.1" clip-path="url(#SVGID_2_)">
		<g>
			<defs>
				<rect id="SVGID_43_" x="181.132" y="246.518" width="24.393" height="83.309"/>
			</defs>
			<clipPath id="SVGID_44_">
				<use xlink:href="#SVGID_43_"  overflow="visible"/>
			</clipPath>
			<path clip-path="url(#SVGID_44_)" fill="#464363" d="M186.774,297.858l2.195-28.089l16.554-21.861
				c-0.108-0.827-0.188-1.39-0.188-1.39h-4.401l-17.612,23.251l-2.189,28.089l15.063,31.968l4.744-1.905L186.774,297.858z"/>
		</g>
	</g>
	<g opacity="0.1" clip-path="url(#SVGID_2_)">
		<g>
			<defs>
				<rect id="SVGID_45_" x="219.397" y="320.836" width="11.139" height="19.163"/>
			</defs>
			<clipPath id="SVGID_46_">
				<use xlink:href="#SVGID_45_"  overflow="visible"/>
			</clipPath>
			<path clip-path="url(#SVGID_46_)" fill="#464363" d="M224.19,320.836l-4.794,1.929l7.613,17.231c0,0,1.505-2.019,3.53-4.791
				L224.19,320.836z"/>
		</g>
	</g>
</g>
</svg>
