<?xml version="1.0" encoding="utf-8"?>
<!-- Generator: Adobe Illustrator 15.1.0, SVG Export Plug-In . SVG Version: 6.00 Build 0)  -->
<!DOCTYPE svg PUBLIC "-//W3C//DTD SVG 1.1//EN" "http://www.w3.org/Graphics/SVG/1.1/DTD/svg11.dtd">
<svg version="1.1" id="Jupiter" xmlns="http://www.w3.org/2000/svg" xmlns:xlink="http://www.w3.org/1999/xlink" x="0px" y="0px"
	 width="800px" height="600px" viewBox="0 0 800 600" enable-background="new 0 0 800 600" xml:space="preserve">
<g>
	<defs>
		<rect id="SVGID_1_" x="-977.04" y="-639" width="2788.08" height="2091.061"/>
	</defs>
	<clipPath id="SVGID_2_">
		<use xlink:href="#SVGID_1_"  overflow="visible"/>
	</clipPath>
	<path clip-path="url(#SVGID_2_)" fill="#FFFFFF" d="M355.163-289.643c0,1.144-0.927,2.068-2.071,2.068
		c-1.142,0-2.066-0.924-2.066-2.068c0-1.142,0.924-2.069,2.066-2.069C354.236-291.711,355.163-290.784,355.163-289.643"/>
	<path clip-path="url(#SVGID_2_)" fill="#FFFFFF" d="M454.601-289.643c0,1.144-0.926,2.068-2.068,2.068
		c-1.145,0-2.067-0.924-2.067-2.068c0-1.142,0.923-2.069,2.067-2.069C453.675-291.711,454.601-290.784,454.601-289.643"/>
	<g opacity="0.2" clip-path="url(#SVGID_2_)">
		<g>
			<defs>
				<rect id="SVGID_3_" x="462.323" y="-322.205" width="22.497" height="22.494"/>
			</defs>
			<clipPath id="SVGID_4_">
				<use xlink:href="#SVGID_3_"  overflow="visible"/>
			</clipPath>
			<path clip-path="url(#SVGID_4_)" fill="#FFFFFF" d="M478.459-300.489l-15.356-15.357c-1.038-1.035-1.038-2.733,0-3.768
				l1.812-1.812c1.037-1.038,2.731-1.038,3.771,0l15.355,15.356c1.039,1.038,1.039,2.731,0,3.768l-1.813,1.814
				C481.192-299.453,479.493-299.453,478.459-300.489"/>
		</g>
	</g>
	<g opacity="0.2" clip-path="url(#SVGID_2_)">
		<g>
			<defs>
				<rect id="SVGID_5_" x="320.958" y="-322.205" width="22.493" height="22.494"/>
			</defs>
			<clipPath id="SVGID_6_">
				<use xlink:href="#SVGID_5_"  overflow="visible"/>
			</clipPath>
			<path clip-path="url(#SVGID_6_)" fill="#FFFFFF" d="M342.672-315.847l-15.354,15.359c-1.04,1.035-2.733,1.035-3.771,0
				l-1.812-1.816c-1.04-1.035-1.04-2.729,0-3.768l15.354-15.36c1.04-1.034,2.736-1.034,3.771,0l1.812,1.814
				C343.708-318.579,343.708-316.881,342.672-315.847"/>
		</g>
	</g>
	<path clip-path="url(#SVGID_2_)" fill="#F2D3BD" d="M627.855,298.647c0,124.247-100.722,224.968-224.966,224.968
		c-124.249,0-224.971-100.722-224.971-224.968c0-124.243,100.722-224.966,224.971-224.966
		C527.134,73.681,627.855,174.404,627.855,298.647"/>
</g>
<g>
	<defs>
		<path id="SVGID_7_" d="M177.922,298.648c0,124.25,100.719,224.967,224.968,224.967c124.241,0,224.966-100.718,224.966-224.967
			c0-124.247-100.725-224.965-224.966-224.965C278.641,73.683,177.922,174.401,177.922,298.648"/>
	</defs>
	<clipPath id="SVGID_8_">
		<use xlink:href="#SVGID_7_"  overflow="visible"/>
	</clipPath>
	<g opacity="0.5" clip-path="url(#SVGID_8_)">
		<g>
			<defs>
				<rect id="SVGID_9_" x="172.158" y="50.625" width="744.361" height="142.54"/>
			</defs>
			<clipPath id="SVGID_10_">
				<use xlink:href="#SVGID_9_"  overflow="visible"/>
			</clipPath>
			<path clip-path="url(#SVGID_10_)" fill="#DDC0A2" d="M913.991,105.1c0.949,0.963,2.09-8.075,2.528-9.661
				C914.355,97.13,913.641,107.439,913.991,105.1"/>
			<polygon clip-path="url(#SVGID_10_)" fill="#DDC0A2" points="892.689,122.559 893.611,118.944 889.503,127.501 			"/>
			<path clip-path="url(#SVGID_10_)" fill="#DDC0A2" d="M876.036,119.661c-0.889,15.576,6.438-1.484,8.532,4.452l-0.078,3.569
				l3.349-12.101C883.898,116.937,877.892,124.353,876.036,119.661"/>
			<path clip-path="url(#SVGID_10_)" fill="#DDC0A2" d="M872.37,85.062c-0.388,6.058-2.753,4.82,1.797,2.21
				c-0.102-0.684-0.099-1.07-0.139-1.572C873.649,85.726,873.153,85.634,872.37,85.062"/>
			<path clip-path="url(#SVGID_10_)" fill="#DDC0A2" d="M874.028,85.699C875.87,85.561,873.66,80.5,874.028,85.699"/>
			<path clip-path="url(#SVGID_10_)" fill="#DDC0A2" d="M865.299,87.833l3.172-4.973c0.064-3.597-1.899-4.708-0.726-7.148
				C864.883,78.264,864.839,81.843,865.299,87.833"/>
			<path clip-path="url(#SVGID_10_)" fill="#DDC0A2" d="M861.344,98.688l1.559-2.074C862.922,95.104,862.682,94.542,861.344,98.688"
				/>
			<path clip-path="url(#SVGID_10_)" fill="#DDC0A2" d="M866.21,92.242l-3.308,4.372c-0.048,2.525-0.786,7.503,1.446-1.542
				C863.431,99.581,864.615,95.294,866.21,92.242"/>
			<path clip-path="url(#SVGID_10_)" fill="#DDC0A2" d="M867.296,94.798c0.786,3.527,2.141,5.895-1.028,10.833
				C871.043,104.238,872.098,93.348,867.296,94.798"/>
			<path clip-path="url(#SVGID_10_)" fill="#DDC0A2" d="M872.646,135.366l1.011,4.767l2.318-4.889
				C874.821,137.666,873.311,130.549,872.646,135.366"/>
			<path clip-path="url(#SVGID_10_)" fill="#DDC0A2" d="M851.943,77.695c-0.641,3.242-0.535,8.815-0.997,13.019l2.298-3.485
				C852.698,84.861,851.327,82.551,851.943,77.695"/>
			<path clip-path="url(#SVGID_10_)" fill="#DDC0A2" d="M850.946,90.714l-3.427,5.212C849.714,96.933,850.545,94.333,850.946,90.714
				"/>
			<polygon clip-path="url(#SVGID_10_)" fill="#DDC0A2" points="858.287,115.642 864.339,104.515 857.45,115.678 			"/>
			<polygon clip-path="url(#SVGID_10_)" fill="#DDC0A2" points="842.118,75.796 844.718,68.46 840.396,79.484 			"/>
			<path clip-path="url(#SVGID_10_)" fill="#DDC0A2" d="M835.365,76.13c2.008-6.091,0.068-10.816,1.786-14.497
				c-1.953,0.845-4.267,6-6.343,10.625C832.655,69.777,834.112,70.705,835.365,76.13"/>
			<path clip-path="url(#SVGID_10_)" fill="#DDC0A2" d="M827.479,78.955c0.943-1.391,2.089-3.965,3.329-6.698
				C829.821,73.587,828.759,75.555,827.479,78.955"/>
			<path clip-path="url(#SVGID_10_)" fill="#DDC0A2" d="M843.374,93.65c0.095-2.005,0.489-7.225-0.633-9.626l-0.361,9.337
				C842.683,93.448,843.026,93.549,843.374,93.65"/>
			<path clip-path="url(#SVGID_10_)" fill="#DDC0A2" d="M842.369,93.657l0.011-0.299c-1.072-0.366-1.805-0.689-2.116-0.842
				C840.535,92.64,841.172,92.972,842.369,93.657"/>
			<path clip-path="url(#SVGID_10_)" fill="#DDC0A2" d="M843.622,93.727c-0.089-0.034-0.157-0.066-0.248-0.077
				C843.336,94.567,843.35,94.877,843.622,93.727"/>
			<path clip-path="url(#SVGID_10_)" fill="#DDC0A2" d="M852.842,106.322c-2.301,4.9-6.272,9.936-4.438,18.22
				C850.445,118.419,849.388,113.7,852.842,106.322"/>
			<path clip-path="url(#SVGID_10_)" fill="#DDC0A2" d="M843.152,105.399l2.409,2.509c0.313-2.432,0.358-6.043,1.491-8.477
				L843.152,105.399z"/>
			<polygon clip-path="url(#SVGID_10_)" fill="#DDC0A2" points="841.375,108.111 843.152,105.397 842.258,104.47 			"/>
			<path clip-path="url(#SVGID_10_)" fill="#DDC0A2" d="M830.924,88.263c-1.77,3.82-3.11,3.963-4.666,4.382
				c1.303,2.042,2.777,3.262,4.312,3.475C831.213,93.264,832.652,88.189,830.924,88.263"/>
			<path clip-path="url(#SVGID_10_)" fill="#DDC0A2" d="M836.369,91.692c-0.112,0.196-0.231,0.286-0.34,0.485
				C836.077,92.978,836.165,93.247,836.369,91.692"/>
			<path clip-path="url(#SVGID_10_)" fill="#DDC0A2" d="M811.871,90.536c0,0.548-0.003,1.133-0.006,1.706
				c0.095-0.536,0.184-1.042,0.279-1.583L811.871,90.536z"/>
			<path clip-path="url(#SVGID_10_)" fill="#DDC0A2" d="M830.584,97.871c0.915,1.952,1.946-0.19,3.036-2.923
				c-1.015,0.792-2.036,1.247-3.047,1.17C830.283,97.405,830.141,98.262,830.584,97.871"/>
			<path clip-path="url(#SVGID_10_)" fill="#DDC0A2" d="M822.838,82.644c0.333,2.016,0.796,3.748,1.31,5.361
				C823.967,85.004,823.399,80.282,822.838,82.644"/>
			<path clip-path="url(#SVGID_10_)" fill="#DDC0A2" d="M836.009,89.577c0.081-0.138,0.16-0.296,0.237-0.383
				C836.151,87.162,836.056,88.135,836.009,89.577"/>
			<path clip-path="url(#SVGID_10_)" fill="#DDC0A2" d="M836.009,89.577c-0.803,1.23-1.613,3.427-2.389,5.371
				c0.823-0.616,1.633-1.501,2.409-2.771C835.981,91.504,835.981,90.494,836.009,89.577"/>
			<path clip-path="url(#SVGID_10_)" fill="#DDC0A2" d="M799.218,148.968c1.396-8.493,5.574-15.95,6.915-6.445
				c3.506-6.03,5.813-34.289,5.732-50.281c-0.606,3.705-1.097,7.14-4.507,11.801c0.293,4.785,4.438,11.709,1.072,19.105
				c-4.18,3.904-2.488-3.415-3.588-8.163c-0.026,10.824-6.694,14.837-8.096,30.561l3.873-5.071
				C800.337,142.912,798.669,146.633,799.218,148.968"/>
			<path clip-path="url(#SVGID_10_)" fill="#DDC0A2" d="M816.901,93.824l1.267-0.907c-1.059-1.659-1.484-5.188-2.213-12.089
				c-2.449,3.902-3.28,7.015-3.811,9.831l5.319,1.945L816.901,93.824z"/>
			<path clip-path="url(#SVGID_10_)" fill="#DDC0A2" d="M823.171,93.596c-2.212,9.135-5.445,12.697-5.259,22.958
				c3.335-0.154,3.394-7.399,5.919-11.125c-5.581,1.506,2.266-4.939-0.772-10.765c1.263-1.417,2.263-1.759,3.199-2.018
				c-0.786-1.265-1.497-2.798-2.11-4.639c0.013,0.228,0.023,0.392,0.038,0.594l0.026-0.025c-0.01,0.06-0.013,0.083-0.026,0.143
				c0.061,1.189,0.033,1.902-0.126,1.196c-0.034,0.111-0.103,0.143-0.137,0.17c-0.222,1.287-0.483,2.398-0.745,3.461
				c-1.25-2.141,0.108-2.44,0.745-3.461c0.085-0.442,0.174-0.902,0.263-1.366V88.6l-6.018,4.317
				C819.1,94.367,820.54,94.273,823.171,93.596"/>
			<path clip-path="url(#SVGID_10_)" fill="#DDC0A2" d="M842.58,144.028c-0.037-0.842,0.075-1.5,0.161-2.175
				C842.232,142.937,841.988,143.694,842.58,144.028"/>
			<path clip-path="url(#SVGID_10_)" fill="#DDC0A2" d="M841.287,138.114c0.575-1.233,1.454-4.889,2.543-3.749
				c0.646,2.944-0.681,4.437-1.089,7.49c1.116-2.345,3.617-6.249,1.966-11.101l-0.562,1.202c-1.616-3.496-2.586-15.455-2.024-16.671
				C841.478,123.711,841.127,129.73,841.287,138.114"/>
			<path clip-path="url(#SVGID_10_)" fill="#DDC0A2" d="M831.795,118.203l-5.033,3.89l1.038,8.354l0.592-4.833
				C830.594,127.875,830.938,121.863,831.795,118.203"/>
			<polygon clip-path="url(#SVGID_10_)" fill="#DDC0A2" points="812.021,85.855 813.988,76.143 809.488,89.619 			"/>
			<polygon clip-path="url(#SVGID_10_)" fill="#DDC0A2" points="806.127,86.242 807.532,77.748 805.296,82.678 			"/>
			<path clip-path="url(#SVGID_10_)" fill="#DDC0A2" d="M476.029,162.017l-1.39,2.377
				C475.277,163.669,475.702,162.871,476.029,162.017"/>
			<path clip-path="url(#SVGID_10_)" fill="#DDC0A2" d="M485.177,163.033l0.446-4.217
				C485.075,161.127,484.81,162.835,485.177,163.033"/>
			<path clip-path="url(#SVGID_10_)" fill="#DDC0A2" d="M665.03,70.233c-1.089-8.179-1.98-20.785-2.712-11.134l-0.351,9.435
				C663.458,66.986,664.371,68.128,665.03,70.233"/>
			<path clip-path="url(#SVGID_10_)" fill="#DDC0A2" d="M563.993,117.915c0.109,0.934,0.225,1.925,0.338,2.896
				c0.69-3.189,1.333-6.168,1.929-8.9C565.573,113.734,564.804,115.776,563.993,117.915"/>
			<path clip-path="url(#SVGID_10_)" fill="#DDC0A2" d="M559.817,156.731l-1.997-6.245
				C558.215,152.647,558.852,154.725,559.817,156.731"/>
			<path clip-path="url(#SVGID_10_)" fill="#DDC0A2" d="M425.54,169.893l-1.808,9.546
				C426.036,179.466,425.192,174.594,425.54,169.893"/>
			<path clip-path="url(#SVGID_10_)" fill="#DDC0A2" d="M746.984,81.951c-1.177-3.854-2.29-5.554-3.375-6.15
				C744.92,81.416,745.504,89.672,746.984,81.951"/>
			<path clip-path="url(#SVGID_10_)" fill="#DDC0A2" d="M484.697,62.263c-0.885,1.669-1.32,3.573-1.405,5.672
				C484.19,66.362,484.752,64.58,484.697,62.263"/>
			<path clip-path="url(#SVGID_10_)" fill="#DDC0A2" d="M738.892,75.243c0.178,0.974,0.401,1.482,0.597,2.308
				c1.385-1.417,2.739-2.534,4.121-1.75C742.649,71.617,741.28,68.943,738.892,75.243"/>
			<path clip-path="url(#SVGID_10_)" fill="#DDC0A2" d="M243.982,160.5c-0.14-0.42-0.303-0.619-0.433-1.118
				C243.533,160.655,243.716,160.717,243.982,160.5"/>
			<path clip-path="url(#SVGID_10_)" fill="#DDC0A2" d="M187.863,66.757c0.516-0.599,1.391-0.64,2.209-0.792
				C189.652,65.333,188.978,65.416,187.863,66.757"/>
			<path clip-path="url(#SVGID_10_)" fill="#DDC0A2" d="M783.623,78.985C784.92,78.543,783.953,77.978,783.623,78.985"/>
			<path clip-path="url(#SVGID_10_)" fill="#DDC0A2" d="M784.542,116.75c-0.395,1.019-0.772,2.326-1.092,4.479
				C783.852,118.991,784.211,117.583,784.542,116.75"/>
			<path clip-path="url(#SVGID_10_)" fill="#DDC0A2" d="M719.894,132.033c-0.037-0.003-0.061-0.037-0.103-0.044
				C719.936,133.864,719.915,133.508,719.894,132.033"/>
			<path clip-path="url(#SVGID_10_)" fill="#DDC0A2" d="M784.883,83.486c-0.3-1.212-0.698-2.24-1.182-2.99
				C783.854,81.253,784.208,82.226,784.883,83.486"/>
			<path clip-path="url(#SVGID_10_)" fill="#DDC0A2" d="M785.229,79.035c0.36,0.478,0.66,0.757,0.946,1.05
				C786.532,78.551,786.529,77.554,785.229,79.035"/>
			<path clip-path="url(#SVGID_10_)" fill="#DDC0A2" d="M781.86,79.254c0.718-0.051,1.306,0.481,1.841,1.242
				c-0.153-0.664-0.184-1.206-0.078-1.512C783.249,79.081,782.718,79.203,781.86,79.254"/>
			<path clip-path="url(#SVGID_10_)" fill="#DDC0A2" d="M341.684,134.914c-0.077-0.296-0.164-0.49-0.247-0.895
				C340.185,137.926,340.723,137.304,341.684,134.914"/>
			<path clip-path="url(#SVGID_10_)" fill="#DDC0A2" d="M624.299,164.617c0.064-0.092,0.115-0.335,0.178-0.444
				c-0.045-0.107-0.105-0.247-0.147-0.344L624.299,164.617z"/>
			<path clip-path="url(#SVGID_10_)" fill="#DDC0A2" d="M619.395,171.242c2.876-11.531,3.784-10.004,4.935-7.413l1.065-27.197
				L619.395,171.242z"/>
			<path clip-path="url(#SVGID_10_)" fill="#DDC0A2" d="M453.934,163.693l2.625,8.601c-4.221,13.76-6.601,8.835-4.319,20.873
				c1.702-29.474,11.697-2.474,13.478-31.914l1.681,6.298c-0.552-0.313-0.724,1.419-1.267,1.098
				c3.166,14.299,3.86-21.187,8.635-16.752c1.62,2.342,2.614,6.681,1.264,10.121l4.217-7.11c1.092,0.625,0.554,5.733-0.531,5.117
				l5.997-2.074l-0.089,0.864c1.079-4.589,3.359-11.641,4.455-14.638c1.27,4.297-0.918,3.088-0.731,6.783l3.645-6.963
				c0.913,7.722-2.185,14.944-4.372,13.761c1.456,29.561,3.103-7.273,8.709,10.299l-3.269,3.555
				c1.05,16.836,3.765,10.92,6.614,21.552c-0.491-5.493-5.43-26.679-1.502-33.806c0.871,2.283,2.117,3.418,4.359-2.398
				c-0.581,10.477,1.42,8.017,3.778,7.562l-0.971,13.867c2.737-3.851,2.959-10.932,4.807-17.09
				c2.723,1.533,2.651,12.32,2.754,21.416c4.332,2.471-2.039-17.419,3.42-19.716c3.4,5.532,6.357,0.022,11.367-8.011
				c2.304,4.935-1.004,8.456-0.323,12.483l3.033-10.928c0.55,0.299,0.146,3.689-0.062,5.398c2.236-4.173,1.068-13.851,4.397-17.436
				c1.865-15.244,4.812,22.783,9.792,5.704c0.664,4.006-1.041,8.466-1.127,13.854c6.001-10.998,5.037-7.938,10.421-22.942
				l3.003,9.368c-1.934-10.609,2.389-22.677,6.173-32.57c-0.588-5.097-1.089-9.561-1.49-11.698l5.411-7.081
				c0.419,2.317-0.428,7.043-1.654,12.773c0.416-1.12,0.813-2.228,1.137-3.259c1.352,5.248-0.149,13.185-1.96,20.841
				c-0.367-2.876-0.745-5.806-1.105-8.682c-1.817,8.337-3.614,17.581-3.962,25.715c0.429-1.573,1.126-2.907,1.852-3.628
				c-0.48,2.261-0.831,4.29-0.786,5.683c0.055,1.474,0.778-1.558,1.827-5.035l-0.058,15.528l0.722-6.116l5.531,10.128
				c5.652-15.203,11.374-37.883,19.078-43.63c-2.694,11.173-1.875,18.464-3.056,31.878c-0.804-14.39-6,5.58-9.452,2.435
				c1.809,1.629,0.883,8,0.219,10.195l7.596-12.421c-1.027,10.964,0.735,8.35,2.079,13.037c0.461-21.806,6.076-14.028,9.312-20.45
				c-0.442,7.303-1.701,14.679-4.815,12.644c2.235,16.638,6.772-25.073,9.161-10.894c-0.812,0.11-1.15-1.046-1.779,2.627
				c2.413-6.312,6.544-0.792,4.925,5.461l-0.807,0.08c5.071,3.026,16.081,1.543,18.549-16.794
				c-0.164,2.381-2.699,22.134-3.354,25.825l15.16-61.115c-2.294,15.736-2.591,53.66-7.797,62.206
				c1.051,2.352,2.358,5.125,5.522-0.182c-0.643-2.335-0.009-23.068,1.304-24.396c1.583,17.92,1.368,9.633,3.917,25.03
				c-0.97-3.518,2.815-28.16,4.789-27.163c-0.67,3.676-2.171,24.479-3.158,26.984l7.409-23.824
				c-1.691,4.255-2.215,20.594-1.756,27.581c-0.061-4.816,4.322,0.877,5.904-1.401l-1.59-5.848
				c5.34,4.239,9.051-33.641,14.649-31.799c-1.205,4.957-4.826,30.744-2.261,34.092c2.573-12.327,12.008-59.313,18.147-68.385
				l0.231,7.21l4.772-7.683c-4.448,18.421-15.363,57.207-20.578,72.173c1.553,5.847-0.268,8.447,2.988,8.122
				c0.433,6.783-2.786,9.946-3.761,10.248l6.953,5.039c1.198-14.596,7.205-13.968,8.213-26.096l-9.659,14.211
				c1.172-14.532,9.003-40.8,14.053-37.611c0.729,5.928-3.778,25.745-4.18,30.603c1.216-4.928,6.031-8.988,6.13-5.391l-3.073,7.514
				c2.328,5.792,6.882-18.712,8.893-4.457c1.121,1.065,1.557,19.102,2.72,10.532c-0.132-16.789,5.129-68.092,7.858-80.384
				c0.32,1.165,4.742,16.568,5.215,24.905c0.547,13.215-6.532,30.619-6.071,41.967c0.52-3.956,2.185-8.725,2.824-10.248
				c0.896,3.531-1.92,12.227,1.062,10.745c2.144-14.669,5.521,1.879,2.732-12.291c3.218-3.9,2.557,3.349,5.83,3.066
				c0.076-9.625,6.644-32.039,9.904-35.92c-0.603,3.722-0.555,8.66-0.518,10.918c5.473,1.972,7.679,9.069,12.893,9.834
				c0.051,3.621,2.038,8.247,0.194,14.439c1.065-2.505,2.365-7.403,4.022-7.559c1.546,13.102-3.828,1.533-3.335,17.102
				c1.249-8.519,5.602-11.267,8.562-16.321c0.933-13.282-4.996-3.189-7.939,1.853c2.211-18.201,8.569-36.76,15.151-44.485
				c4.955-3.967,0.422,11.999,1.508,9.504c7.804,4.207,11.075-30.89,16.251-16.907c1.212,11.926-2.876,23.068-3.355,31.499
				c-4.118,3.944-4.506-8.038-6.983-7.874l2.267,5.852c-1.627,3.711-4.37,6.342-5.231,2.82c0.923,10.726,13.583,3.659,18.593,14.19
				c1.637-3.728,4.105-7.479,3.815-12.264l-2.216,1.346c-0.596-9.595,5.487-12.4,3.536-17.113
				c3.561-6.192,7.98-16.091,11.064-10.288l-1.085,13.304c0.449-3.87-1.406-8.209-3.016-4.336c2.383-5.629,3.366,18.669,7.457,1.627
				l-1.406-9.515c3.608-6.259,8.906-19.81,11.715-15.181c0.269-13.243-0.983,1.387-1.28-14.198
				c-0.534,19.262-8.556-1.994-7.939,18.411c-0.048-18.045-3.237-8.095-4.432-23.638c-0.486,4.367,0.023,8.485-2.531,5.947
				c-0.3,1.256-0.82,2.832-1.142,3.754c-0.071-0.129-0.091-0.206-0.148-0.352c0.034,0.189,0.058,0.346,0.088,0.538
				c-0.211,0.635-0.238,0.77,0.034,0.187c0.422,1.995,0.664,4.36,0.555,6.824c-2.753,9.807-7.205,8.871-9.411,13.836
				c-1.404-2.301,1.361-4.901,1.062-9.674l-3.298,7.429c1.059-9.72-2.366-16.667,2.355-21.817l-3.526-0.889
				c-1.398-5.693-4.032-8.213-6.351-4.366c-1.426-2.304-5.646,10.183-3.203,2.787l-6.38,5.299l0.254-2.43
				c-5.408-1.913-13.379,14.616-17.574-3.658c-2.166,2.208-4.448,4.962-7.239,1.822l0.391-8.463
				c-2.739,2.611-6.229-9.238-8.287-0.616c0.034-22.856-11.126-6.235-14.894-10.714l-1.393,10.937
				c-2.837-0.948-5.979,1.85-10.07,5.848l-0.84,9.707c-3.969,7.604-7.216-7.783-12.242-7.34c0.729-3.667,1.871-2.558,2.515-0.219
				c-3.56-22.581-14.056,14.626-17.715-1.855c-1.688,3.395-2.522,2.095-3.206-0.436c0.123-0.006,0.252-0.177,0.378-0.473
				c-0.122-0.132-0.323-0.172-0.531-0.175c-0.419-1.72-0.826-3.722-1.324-5.342c0.317,2.411,0.654,4.406,1.025,5.345
				c-1.042,0.103-2.717,1.154-4.482,3.431l0.395-10.478c-0.14,0.126-0.238,0.095-0.385,0.263c-1.112-3.991-1.691,4.812-1.677,12.723
				c-0.937,1.636-1.842,3.625-2.632,6.086c0.45-16.931-4.536,5.267-4.438-12.83c-1.875,8.643-8.284,5.821-10.839,24.142
				c0.177-2.401-0.16-3.587,0.67-3.655c-1.487-2.267-2.978-4.525-4.979,0.507l0.523-13.316l-5.347,17.447
				c-1.487-8.274-1.998-13.037,1.178-23.043c-6.831,15.216-4.925,5.53-10.901,20.681l0.994-8.549
				c-1.668,0.186-5.3,11.439-5.653,4.27c-2.232-16.604-17.882-3.811-26.054-19.76c-0.203,25.407-3.464-11.703-5.404,7.848
				c-0.075-6.005-1.126-9.477,0.816-14.558c-5.274,5.517-6.517-10-11.112,6.261c-0.095-6.042,1.702-8.686,1.48-12.264
				c-0.486,1.261-1.929,5.082-2.161,1.48c-0.221-3.592,1.09-4.966,2.056-7.513c-5.023,0.643-6.897,19.019-8.549,36.275
				c-1.865-8.364-3.202-7.3-5.819,3.904c-0.446-5.716-1.46-11.739,1.735-13.544c-1.651-0.952-9.891-9.057-11.041,4.785
				c-0.289-3.552-2.321-1.202-2.882,0.366c-3.785-1.107-4.036-2.382-7.899-1.344l0.892,2.341c-2.618,16.617-3.376,3.479-6.552,5.318
				l0.2-1.71c-6.188-12.48-3.375,5.601-9.376-8.58l-0.283,10.423c-2.045,22.337-5.258-13.564-9.791-5.248l1.079,6.029
				c-2.628,7.529-4.261-30.797-6.32-33.726c-0.367-1.979,0.943-3.08,1.698-4.48c-5.01-13.544-1.549,13.588-6.023,16.498
				c-0.372-7.399,2.1-18.635-0.726-20.175c-1.126-6.043-9.733,23.357-12.901,9.025c0.567,5.72,1.119,11.422-1.1,15.576
				c-3.143,1.879-7.15-21.817-10.823-4.081c-0.311-1.565-0.385-3.056-0.33-4.465c-2.569,4.5-7.972,7.302-9.832,16.923
				c-0.48-36.065-15.265,16.81-13.724-16.358l-7.262,1.433l0.329-3.375c-4.506-2.428-6.46,5.503-8.382,13.401
				c-0.971-2.294-0.075-5.361,0.081-7.096c-6.443-6.921-7.195-5.538-13.399,10.804l-0.197-10.784
				c-1.729,6.205-9.139-17.213-16.139-4.882c0.101-1.217,0.302-3.303,0.874-4.802c-7.751,12.348-16.968-30.449-20.718,8.744
				l-5.121,9.563c6.222,3.179-1.351,16.997,1.074,23.564c-2.51,2.248-6.092-11.965-3.01-13.914l0.427,1.973
				c1.605-20.419-7.652-7.413-7.18-21.33c-12.438,0.765-24.381-10.901-36.076-11.796l1.161,15.906l-4.05-0.944
				c-1.024-3.711-1.303-12.448,1.596-11.769c-1.436-9.019-4.952,7.506-5.064,10.964c-5.617-6.489,2.397-18.521,0.662-18.915
				l-2.388,1.167l0.519,1.862c-1.982,6.478-2.208,13.365-5.687,12.549c-2.181-3.199-1.06-9.813-1.922-10.435
				c0.013-1.125-0.279-1.659-1.336-0.466l-5.125-1.401l1.979,12.567c-2.304,6.169-4.806-0.697-2.521,13.542
				c-3.356-21.987-19.045-7.998-21.161-14.735c-3.172,9.163-6.291,9.019-10.176,7.932c0.975,2.606,1.6,16.719-1.739,15.007
				c1.094-29.125-6.169-12.61-9.021-33.541c2.517,13.877-9.521,3.475-5.555,23.178c-2.813-2.338-0.266-10.894-2.447-17.738
				c-6.545,11.27-14.779-7.186-22.999-3.22c-0.064,3.822,1.402,9.644-0.271,15.362l-4.662-19.033
				c-1.605,1.906-1.117,22.085-4.326,8.876c0.482,3.211,1.191,8.048,0.129,9.288c-8.229-9.152-16.415-5.231-24.627-3.257
				c-8.225,2.023-16.476,2.002-25.252-15.231c2.464,7.336,1.004,8.114-0.684,8.444c1.161,1.736,0.283,9.438,0.669,14.606
				l-7.331-14.167c-0.75,14.409-7.322,1.207-7.535,14.958l2.073-2.534c-2.275,16.3,5.316,35.908,5.609,56.728
				c2.564-18.535,9.263,27.037,13.602,0.487c1.283,4.207-0.771,6.733-0.003,11.539c1.034-8.959,2.574-10.867,5.646-6.96
				l-0.269,2.217c8.218-2.411,12.016,6.203,21.419,11.863l-0.931-10.277c2.032,1.345,2.527,4.562,3.521,7.12
				c1.934-15.642-5.629-0.778-3.946-18.021c3.136,20.893,14.136,0.062,16.391,23.828c3.066,0.07-1.125-11.898,1.949-11.815
				l0.931,6.422l0.623-8.308c2.042,1.331,3.196,9.364,3.365,14.818c-0.499-0.638-1.356,1.552-1.869,2.028
				c2.724,7.539,7.283-2.721,8.221-0.266l-3.003-3.917c8.28-6.186,18.576,2.078,26.549-11.005l-0.655-4.858
				c6.127-9.015,5.001,5.315,11.769,1.119l-0.243,1.164c1.334-4.847,3.146-7.297,5.012-6.754c-1.69,5.696,3.269,11.041,1.041,17.342
				c6.674-9.678,3.284-7.589,7.699-25.663l1.036,8.047c1.509-7.295,1.634-11.135,5.046-13.244
				c-2.794,6.933,2.167,12.268-0.961,21.43c7.081,17.559,10.629-17.746,13.808,8.03c3.371-22.28-6.12-12.434-4.27-17.196
				c-1.522-7.3,2.764-16.648,5.012-14.39c2.293,0.516,3.747,28.563,9.453,28.188c-0.565-0.111-0.618,1.576-1.187,1.474
				c2.095,5.706,4.252-7.667,6.8,1.592c1.593-13.469,3.395,0.802,3.991-16.392l-5.298,3.938c3.007-4.476,6.023-24.582,10.852-14.781
				c-0.422,3.468-1.937,8.02-2.969,10.557c1.38,5.084,2.806-3.339,4.236,1.882c-0.625,17.216-6.435,3.692-9.741,16.794
				c1.46,7.28,6.14-12.421,4.353,6.209c2.555-23.688,5.575,3.04,9.667-15.031l-0.392,10.309c0.632-1.616,1.966-6.479,3.092-6.207
				l-2.221,13.355c3.284-11.393,5.873,10.03,8.951,3.897c-6.271,0.188-1.214-12.453-3.757-20.032
				c7.988-13.638,4.034,27.067,12.747,22.304c-1.191,1.427-4.283-6.288-2.361-11.024c1.609,2.158,3.711,6.162,4.618,11.592
				c5.767-2.022-0.674-10.627,1.892-16.906c1.704,12.601,2.92-5.058,5.538-9.023l-0.206,10.482
				c6.402,6.862,2.221-21.809,7.957-13.557l-2.833,14.481l3.163-3.691l-0.912,11.908c3.542-8.775,4.54-6.461,7.722-3.05
				c-0.572-7.402,0.917-19.011,3.845-19.277c1.814,6.268-1.377,9.937,2.781,8.526c-1.112,6.538-2.342,14.749-3.875,5.056
				c-0.276,3.412-1.087,6.557-1.366,9.93c1.938,7.21,5.293,1.726,6.781,1.699c-0.56-0.413-1.228-1.004-1.538-2.503l6.373-14.32
				c0.825,3.965-0.015,7.103-0.841,10.173c1.236-1.091,2.213-5.879,4.019-6.72c-0.714,8.5-0.871,17.298-3.491,21.222l5.941-9.257
				c0.265,3.714,2.581,10.271,1.75,13.382c2.954,5.117,8.226-16.262,12.167-9.511c0.27-1.644,0.763-3.209,1.691-4.397
				c3.853,2.063,6.905,12.623,11.991,1.108l2.024,15.356c3.764-3.339-2.805-19.354,3.484-24.905
				c4.493-4.678,1.069,13.093,2.394,17.411c2.434-7.597,6.827-23.077,10.22-10.469C456.118,164.923,455.2,162.619,453.934,163.693
				 M499.097,159.16c-0.993,2.143-3.096,8.817-3.39,2.599C497.357,149.829,497.811,155.615,499.097,159.16 M569.156,138.499
				c-0.912,3.412-1.786,1.624-2.627-2.414C567.418,135.286,568.323,135.746,569.156,138.499 M769.183,85.68
				c-0.058,0.184-0.1,0.31-0.16,0.49C767.568,81.873,768.063,83.559,769.183,85.68 M772.705,90.705
				c0.602-1.397,0.762-2.843,0.778-4.319c-0.633,2.597-1.575,2.66-2.531,1.792C770.888,90.938,771.173,92.88,772.705,90.705
				 M329.375,64.249l0.788,2.743C328.322,70,328.853,67.278,329.375,64.249"/>
			<path clip-path="url(#SVGID_10_)" fill="#DDC0A2" d="M560.324,152.235c-0.115-1.783-0.04-3.735,0.045-5.708
				C559.896,148.26,559.743,150.289,560.324,152.235"/>
			<path clip-path="url(#SVGID_10_)" fill="#DDC0A2" d="M425.876,168.131c-0.044-0.088-0.088-0.057-0.133-0.123
				c-0.098,0.628-0.16,1.261-0.203,1.885L425.876,168.131z"/>
			<path clip-path="url(#SVGID_10_)" fill="#DDC0A2" d="M699.045,171.318c-0.65-1.591-0.902-3.55-0.986-5.555
				C697.728,168.308,697.86,170.503,699.045,171.318"/>
			<path clip-path="url(#SVGID_10_)" fill="#DDC0A2" d="M796.855,76.029l-3.009,2.34c1.342-0.339,1.491,1.996,1.909,3.732
				C796.028,79.666,796.004,76.086,796.855,76.029"/>
			<path clip-path="url(#SVGID_10_)" fill="#DDC0A2" d="M810.554,143.409c0.562-1.218,0.824-0.027,1.386-1.265l0.589-4.837
				C810.863,137.398,809.176,141.13,810.554,143.409"/>
			<path clip-path="url(#SVGID_10_)" fill="#DDC0A2" d="M794.545,110.875c-0.994,8.765,1.048,6.025,3.104,4.661
				c-0.116,0.017-0.229,0.076-0.324-0.046C799.561,103.341,797.043,107.12,794.545,110.875"/>
			<path clip-path="url(#SVGID_10_)" fill="#DDC0A2" d="M798.114,115.3c0.62-0.33,1.232-0.483,1.723,0.015
				C800.731,110.446,799.292,114.199,798.114,115.3"/>
			<path clip-path="url(#SVGID_10_)" fill="#DDC0A2" d="M778.675,85.606c0.575,2.374,2.031-11.107,2.056-7.472
				C783.177,67.14,773.116,90.797,778.675,85.606"/>
			<polygon clip-path="url(#SVGID_10_)" fill="#DDC0A2" points="792.054,139.862 792.891,128.987 790.672,137.538 			"/>
			<path clip-path="url(#SVGID_10_)" fill="#DDC0A2" d="M778.77,129.965l2.508,3.388c0.197-1.816,0.712-2.827,1.276-3.572
				C780.808,129.175,779.13,126.759,778.77,129.965"/>
			<path clip-path="url(#SVGID_10_)" fill="#DDC0A2" d="M782.554,129.78c0.906,0.338,1.825,0.231,2.583-1.463
				C784.617,128.362,783.479,128.568,782.554,129.78"/>
			<polygon clip-path="url(#SVGID_10_)" fill="#DDC0A2" points="787.643,142.554 787.091,140.186 785.151,139.111 			"/>
			<path clip-path="url(#SVGID_10_)" fill="#DDC0A2" d="M747.717,123.844l-3.566,2.703c-0.783,3.662-0.201,6.036,1.164,4.707
				C746.396,128.769,747.758,127.487,747.717,123.844"/>
			<path clip-path="url(#SVGID_10_)" fill="#DDC0A2" d="M753.558,154.626c-0.565-2.35-0.316-4.768-0.345-8.386l-1.803,13.375
				L753.558,154.626z"/>
			<path clip-path="url(#SVGID_10_)" fill="#DDC0A2" d="M743.96,156.601c-0.783,3.677-5.901,10.093-1.808,9.752
				C742.932,162.706,746.475,160.016,743.96,156.601"/>
			<polygon clip-path="url(#SVGID_10_)" fill="#DDC0A2" points="698.307,133.993 699.13,133.913 701.481,111.905 			"/>
			<path clip-path="url(#SVGID_10_)" fill="#DDC0A2" d="M650.865,182.211c3.183,5.646,2.247-13.5,4.942-6.583
				c1.402-5.117-2.205-5.643-0.854-10.052C652.149,170.844,651.284,167.624,650.865,182.211"/>
			<path clip-path="url(#SVGID_10_)" fill="#DDC0A2" d="M654.954,165.575c0.445-0.829,0.935-1.846,1.483-3.233
				C655.648,163.652,655.232,164.677,654.954,165.575"/>
			<polygon clip-path="url(#SVGID_10_)" fill="#DDC0A2" points="178.407,55.162 175.766,50.628 177.629,58.01 			"/>
			<path clip-path="url(#SVGID_10_)" fill="#DDC0A2" d="M174.268,71.714l-1.104-14.075l-1.004,12.804
				C172.692,69.798,173.729,68.547,174.268,71.714"/>
			<path clip-path="url(#SVGID_10_)" fill="#DDC0A2" d="M504.117,187.929l0.378-3.379c-0.153-3.688-0.697-3.994-1.784-4.635
				L504.117,187.929z"/>
			<polygon clip-path="url(#SVGID_10_)" fill="#DDC0A2" points="472.333,175.663 472.877,175.974 472.455,163.188 			"/>
			<path clip-path="url(#SVGID_10_)" fill="#DDC0A2" d="M444.473,190.631c1.082,0.582,2.501-2.199,3.586-1.603
				C445.558,191.213,444.823,174.726,444.473,190.631"/>
		</g>
	</g>
	<g opacity="0.5" clip-path="url(#SVGID_8_)">
		<g>
			<defs>
				<rect id="SVGID_11_" x="150.131" y="420.535" width="744.361" height="142.539"/>
			</defs>
			<clipPath id="SVGID_12_">
				<use xlink:href="#SVGID_11_"  overflow="visible"/>
			</clipPath>
			<path clip-path="url(#SVGID_12_)" fill="#DDC0A2" d="M891.967,475.011c0.953,0.963,2.09-8.073,2.525-9.659
				C892.328,467.04,891.616,477.349,891.967,475.011"/>
			<polygon clip-path="url(#SVGID_12_)" fill="#DDC0A2" points="870.665,492.466 871.584,488.855 867.477,497.409 			"/>
			<path clip-path="url(#SVGID_12_)" fill="#DDC0A2" d="M854.01,489.57c-0.886,15.577,6.438-1.484,8.532,4.451l-0.079,3.57
				l3.35-12.103C861.871,486.851,855.864,494.264,854.01,489.57"/>
			<path clip-path="url(#SVGID_12_)" fill="#DDC0A2" d="M850.343,454.972c-0.387,6.055-2.749,4.818,1.798,2.208
				c-0.099-0.685-0.099-1.068-0.14-1.568C851.624,455.635,851.126,455.543,850.343,454.972"/>
			<path clip-path="url(#SVGID_12_)" fill="#DDC0A2" d="M852.001,455.607C853.843,455.468,851.633,450.407,852.001,455.607"/>
			<path clip-path="url(#SVGID_12_)" fill="#DDC0A2" d="M843.274,457.742l3.169-4.973c0.065-3.599-1.899-4.704-0.722-7.147
				C842.859,448.171,842.812,451.748,843.274,457.742"/>
			<path clip-path="url(#SVGID_12_)" fill="#DDC0A2" d="M839.319,468.595l1.56-2.072
				C840.896,465.019,840.654,464.457,839.319,468.595"/>
			<path clip-path="url(#SVGID_12_)" fill="#DDC0A2" d="M844.184,462.152l-3.305,4.37c-0.048,2.528-0.789,7.501,1.443-1.538
				C841.403,469.49,842.591,465.206,844.184,462.152"/>
			<path clip-path="url(#SVGID_12_)" fill="#DDC0A2" d="M845.27,464.705c0.789,3.532,2.14,5.898-1.024,10.836
				C849.016,474.149,850.071,463.259,845.27,464.705"/>
			<path clip-path="url(#SVGID_12_)" fill="#DDC0A2" d="M850.622,505.273l1.008,4.769l2.321-4.892
				C852.794,507.574,851.282,500.454,850.622,505.273"/>
			<path clip-path="url(#SVGID_12_)" fill="#DDC0A2" d="M829.92,447.606c-0.646,3.243-0.534,8.814-0.998,13.015l2.295-3.485
				C830.672,454.774,829.304,452.463,829.92,447.606"/>
			<path clip-path="url(#SVGID_12_)" fill="#DDC0A2" d="M828.922,460.621l-3.43,5.214
				C827.69,466.842,828.521,464.242,828.922,460.621"/>
			<polygon clip-path="url(#SVGID_12_)" fill="#DDC0A2" points="836.26,485.551 842.312,474.429 835.423,485.585 			"/>
			<polygon clip-path="url(#SVGID_12_)" fill="#DDC0A2" points="820.094,445.707 822.69,438.372 818.372,449.396 			"/>
			<path clip-path="url(#SVGID_12_)" fill="#DDC0A2" d="M813.338,446.041c2.012-6.093,0.068-10.816,1.787-14.499
				c-1.95,0.844-4.268,6.004-6.344,10.629C810.633,439.687,812.086,440.615,813.338,446.041"/>
			<path clip-path="url(#SVGID_12_)" fill="#DDC0A2" d="M805.456,448.865c0.942-1.389,2.09-3.969,3.325-6.697
				C807.797,443.498,806.731,445.462,805.456,448.865"/>
			<path clip-path="url(#SVGID_12_)" fill="#DDC0A2" d="M821.347,463.558c0.099-2.001,0.49-7.225-0.633-9.625l-0.361,9.337
				C820.656,463.357,820.999,463.459,821.347,463.558"/>
			<path clip-path="url(#SVGID_12_)" fill="#DDC0A2" d="M820.346,463.568l0.007-0.299c-1.068-0.364-1.8-0.691-2.11-0.845
				C818.508,462.55,819.145,462.881,820.346,463.568"/>
			<path clip-path="url(#SVGID_12_)" fill="#DDC0A2" d="M821.599,463.637c-0.093-0.034-0.156-0.065-0.252-0.075
				C821.31,464.478,821.323,464.787,821.599,463.637"/>
			<path clip-path="url(#SVGID_12_)" fill="#DDC0A2" d="M830.814,476.232c-2.301,4.901-6.272,9.938-4.434,18.222
				C828.419,488.331,827.36,483.607,830.814,476.232"/>
			<path clip-path="url(#SVGID_12_)" fill="#DDC0A2" d="M821.125,475.307l2.41,2.516c0.316-2.438,0.357-6.049,1.494-8.481
				L821.125,475.307z"/>
			<polygon clip-path="url(#SVGID_12_)" fill="#DDC0A2" points="819.353,478.022 821.125,475.311 820.23,474.377 			"/>
			<path clip-path="url(#SVGID_12_)" fill="#DDC0A2" d="M808.9,458.17c-1.773,3.826-3.114,3.969-4.666,4.385
				c1.3,2.045,2.773,3.264,4.309,3.475C809.189,463.177,810.626,458.099,808.9,458.17"/>
			<path clip-path="url(#SVGID_12_)" fill="#DDC0A2" d="M814.346,461.602c-0.112,0.2-0.235,0.285-0.341,0.489
				C814.05,462.888,814.142,463.156,814.346,461.602"/>
			<path clip-path="url(#SVGID_12_)" fill="#DDC0A2" d="M789.845,460.444c0,0.551-0.004,1.133-0.004,1.704
				c0.096-0.533,0.185-1.041,0.279-1.578L789.845,460.444z"/>
			<path clip-path="url(#SVGID_12_)" fill="#DDC0A2" d="M808.56,467.778c0.912,1.957,1.947-0.19,3.036-2.924
				c-1.018,0.797-2.039,1.252-3.05,1.175C808.261,467.314,808.114,468.173,808.56,467.778"/>
			<path clip-path="url(#SVGID_12_)" fill="#DDC0A2" d="M800.811,452.555c0.337,2.015,0.797,3.744,1.31,5.356
				C801.943,454.914,801.372,450.192,800.811,452.555"/>
			<path clip-path="url(#SVGID_12_)" fill="#DDC0A2" d="M813.985,459.484c0.078-0.136,0.156-0.296,0.234-0.378
				C814.128,457.074,814.033,458.044,813.985,459.484"/>
			<path clip-path="url(#SVGID_12_)" fill="#DDC0A2" d="M813.985,459.484c-0.804,1.234-1.616,3.427-2.393,5.37
				c0.823-0.616,1.634-1.501,2.412-2.767C813.954,461.414,813.954,460.406,813.985,459.484"/>
			<path clip-path="url(#SVGID_12_)" fill="#DDC0A2" d="M777.19,518.877c1.399-8.495,5.574-15.951,6.92-6.445
				c3.501-6.031,5.812-34.287,5.73-50.279c-0.609,3.703-1.099,7.141-4.509,11.8c0.296,4.785,4.438,11.707,1.071,19.106
				c-4.176,3.9-2.483-3.417-3.583-8.165c-0.027,10.827-6.694,14.836-8.098,30.562l3.87-5.071
				C778.311,512.819,776.643,516.542,777.19,518.877"/>
			<path clip-path="url(#SVGID_12_)" fill="#DDC0A2" d="M794.875,463.731l1.266-0.905c-1.058-1.654-1.48-5.187-2.212-12.089
				c-2.447,3.907-3.281,7.014-3.809,9.833l5.319,1.942L794.875,463.731z"/>
			<path clip-path="url(#SVGID_12_)" fill="#DDC0A2" d="M801.144,463.507c-2.209,9.132-5.438,12.698-5.255,22.956
				c3.336-0.153,3.394-7.399,5.922-11.126c-5.588,1.505,2.261-4.936-0.778-10.762c1.262-1.422,2.267-1.763,3.202-2.018
				c-0.786-1.27-1.498-2.802-2.114-4.643c0.015,0.229,0.024,0.392,0.038,0.593l0.03-0.024c-0.014,0.059-0.017,0.082-0.027,0.146
				c0.059,1.188,0.034,1.902-0.126,1.191c-0.034,0.116-0.105,0.146-0.14,0.174c-0.22,1.282-0.479,2.393-0.741,3.461
				c-1.249-2.145,0.105-2.444,0.741-3.461c0.089-0.443,0.177-0.905,0.266-1.365l-0.003-0.122l-6.018,4.321
				C797.074,464.275,798.513,464.185,801.144,463.507"/>
			<path clip-path="url(#SVGID_12_)" fill="#DDC0A2" d="M820.557,513.938c-0.037-0.844,0.068-1.501,0.16-2.178
				C820.207,512.85,819.962,513.602,820.557,513.938"/>
			<path clip-path="url(#SVGID_12_)" fill="#DDC0A2" d="M819.261,508.023c0.575-1.232,1.453-4.887,2.542-3.747
				c0.646,2.944-0.681,4.436-1.086,7.484c1.113-2.342,3.614-6.246,1.964-11.096l-0.558,1.202c-1.62-3.495-2.587-15.459-2.029-16.674
				C819.454,493.616,819.1,499.645,819.261,508.023"/>
			<path clip-path="url(#SVGID_12_)" fill="#DDC0A2" d="M809.768,488.114l-5.033,3.887l1.038,8.358l0.6-4.84
				C808.57,497.783,808.91,491.771,809.768,488.114"/>
			<polygon clip-path="url(#SVGID_12_)" fill="#DDC0A2" points="789.994,455.764 791.968,446.055 787.466,459.528 			"/>
			<polygon clip-path="url(#SVGID_12_)" fill="#DDC0A2" points="784.1,456.148 785.506,447.657 783.271,452.589 			"/>
			<path clip-path="url(#SVGID_12_)" fill="#DDC0A2" d="M454.002,531.926l-1.389,2.383
				C453.25,533.583,453.679,532.78,454.002,531.926"/>
			<path clip-path="url(#SVGID_12_)" fill="#DDC0A2" d="M463.15,532.943l0.445-4.22C463.049,531.037,462.79,532.746,463.15,532.943"
				/>
			<path clip-path="url(#SVGID_12_)" fill="#DDC0A2" d="M643.004,440.143c-1.089-8.179-1.98-20.788-2.709-11.133l-0.354,9.431
				C641.432,436.896,642.344,438.039,643.004,440.143"/>
			<path clip-path="url(#SVGID_12_)" fill="#DDC0A2" d="M541.971,487.824c0.108,0.939,0.221,1.923,0.333,2.896
				c0.694-3.189,1.338-6.167,1.934-8.9C543.546,483.646,542.776,485.688,541.971,487.824"/>
			<path clip-path="url(#SVGID_12_)" fill="#DDC0A2" d="M537.79,526.64l-1.997-6.24C536.191,522.556,536.827,524.636,537.79,526.64"
				/>
			<path clip-path="url(#SVGID_12_)" fill="#DDC0A2" d="M403.515,539.802l-1.81,9.546
				C404.009,549.371,403.165,544.509,403.515,539.802"/>
			<path clip-path="url(#SVGID_12_)" fill="#DDC0A2" d="M724.959,451.861c-1.179-3.854-2.287-5.559-3.374-6.154
				C722.896,451.326,723.478,459.579,724.959,451.861"/>
			<path clip-path="url(#SVGID_12_)" fill="#DDC0A2" d="M462.67,432.172c-0.885,1.671-1.32,3.57-1.401,5.67
				C462.17,436.272,462.725,434.489,462.67,432.172"/>
			<path clip-path="url(#SVGID_12_)" fill="#DDC0A2" d="M716.868,445.152c0.174,0.974,0.398,1.483,0.596,2.308
				c1.382-1.419,2.736-2.529,4.121-1.753C720.626,441.524,719.255,438.853,716.868,445.152"/>
			<path clip-path="url(#SVGID_12_)" fill="#DDC0A2" d="M221.957,530.407c-0.143-0.418-0.302-0.618-0.432-1.111
				C221.508,530.564,221.691,530.626,221.957,530.407"/>
			<path clip-path="url(#SVGID_12_)" fill="#DDC0A2" d="M165.838,436.668c0.515-0.603,1.391-0.641,2.209-0.794
				C167.625,435.241,166.953,435.323,165.838,436.668"/>
			<path clip-path="url(#SVGID_12_)" fill="#DDC0A2" d="M761.596,448.893C762.896,448.45,761.93,447.889,761.596,448.893"/>
			<path clip-path="url(#SVGID_12_)" fill="#DDC0A2" d="M762.519,486.66c-0.398,1.015-0.772,2.325-1.096,4.476
				C761.827,488.903,762.188,487.494,762.519,486.66"/>
			<path clip-path="url(#SVGID_12_)" fill="#DDC0A2" d="M697.867,501.941c-0.034-0.003-0.059-0.037-0.099-0.044
				C697.908,503.772,697.888,503.415,697.867,501.941"/>
			<path clip-path="url(#SVGID_12_)" fill="#DDC0A2" d="M762.858,453.396c-0.303-1.212-0.701-2.24-1.185-2.988
				C761.831,451.163,762.182,452.136,762.858,453.396"/>
			<path clip-path="url(#SVGID_12_)" fill="#DDC0A2" d="M763.202,448.943c0.361,0.478,0.664,0.756,0.946,1.053
				C764.51,448.457,764.503,447.463,763.202,448.943"/>
			<path clip-path="url(#SVGID_12_)" fill="#DDC0A2" d="M759.837,449.165c0.714-0.052,1.304,0.483,1.837,1.238
				c-0.152-0.663-0.184-1.204-0.078-1.511C761.223,448.991,760.694,449.11,759.837,449.165"/>
			<path clip-path="url(#SVGID_12_)" fill="#DDC0A2" d="M319.659,504.824c-0.077-0.299-0.167-0.489-0.249-0.896
				C318.16,507.833,318.697,507.217,319.659,504.824"/>
			<path clip-path="url(#SVGID_12_)" fill="#DDC0A2" d="M602.272,534.522c0.063-0.085,0.115-0.33,0.177-0.442
				c-0.045-0.108-0.105-0.241-0.143-0.344L602.272,534.522z"/>
			<path clip-path="url(#SVGID_12_)" fill="#DDC0A2" d="M597.368,541.152c2.875-11.531,3.788-10.006,4.938-7.416l1.064-27.193
				L597.368,541.152z"/>
			<path clip-path="url(#SVGID_12_)" fill="#DDC0A2" d="M431.907,533.604l2.624,8.602c-4.218,13.759-6.596,8.834-4.319,20.869
				c1.705-29.471,11.701-2.475,13.478-31.91l1.686,6.3c-0.552-0.316-0.726,1.412-1.27,1.092c3.164,14.301,3.862-21.183,8.634-16.748
				c1.624,2.338,2.614,6.678,1.263,10.121l4.217-7.109c1.092,0.623,0.559,5.728-0.527,5.112l5.993-2.07l-0.089,0.865
				c1.079-4.591,3.36-11.646,4.455-14.638c1.272,4.292-0.918,3.087-0.73,6.779l3.648-6.967c0.908,7.729-2.189,14.948-4.374,13.764
				c1.453,29.562,3.101-7.271,8.706,10.302l-3.268,3.558c1.049,16.836,3.761,10.917,6.613,21.55
				c-0.49-5.493-5.429-26.684-1.498-33.81c0.868,2.284,2.113,3.42,4.36-2.393c-0.582,10.476,1.419,8.015,3.773,7.559l-0.969,13.869
				c2.736-3.853,2.953-10.932,4.808-17.089c2.72,1.531,2.651,12.316,2.754,21.411c4.333,2.475-2.042-17.416,3.417-19.712
				c3.403,5.53,6.361,0.02,11.368-8.016c2.307,4.935-1.005,8.457-0.324,12.483l3.036-10.929c0.549,0.301,0.143,3.69-0.061,5.398
				c2.232-4.169,1.064-13.846,4.396-17.432c1.865-15.249,4.809,22.778,9.792,5.699c0.663,4.007-1.042,8.469-1.127,13.859
				c6-11.003,5.034-7.944,10.422-22.942l2.998,9.367c-1.93-10.609,2.393-22.678,6.178-32.575c-0.593-5.092-1.094-9.557-1.492-11.694
				l5.408-7.079c0.419,2.314-0.428,7.038-1.649,12.77c0.415-1.119,0.813-2.229,1.133-3.257c1.354,5.248-0.149,13.182-1.961,20.84
				c-0.367-2.876-0.738-5.804-1.103-8.683c-1.82,8.338-3.614,17.579-3.965,25.716c0.433-1.575,1.134-2.906,1.852-3.631
				c-0.479,2.263-0.826,4.291-0.786,5.687c0.055,1.475,0.783-1.559,1.831-5.037l-0.062,15.53l0.722-6.119l5.531,10.129
				c5.656-15.204,11.377-37.881,19.079-43.629c-2.692,11.173-1.872,18.467-3.053,31.876c-0.803-14.386-6,5.582-9.454,2.438
				c1.81,1.63,0.881,7.998,0.217,10.196l7.598-12.423c-1.028,10.967,0.734,8.35,2.082,13.035
				c0.456-21.806,6.075-14.022,9.309-20.447c-0.439,7.307-1.699,14.68-4.816,12.644c2.24,16.64,6.773-25.072,9.162-10.895
				c-0.813,0.112-1.15-1.045-1.776,2.631c2.413-6.313,6.541-0.792,4.925,5.459l-0.81,0.082c5.074,3.025,16.084,1.542,18.548-16.799
				c-0.163,2.382-2.699,22.133-3.349,25.828l15.159-61.118c-2.295,15.737-2.59,53.661-7.801,62.207
				c1.055,2.355,2.358,5.129,5.527-0.184c-0.644-2.335-0.011-23.065,1.299-24.396c1.587,17.925,1.372,9.635,3.918,25.032
				c-0.963-3.52,2.818-28.156,4.793-27.167c-0.675,3.68-2.172,24.481-3.163,26.986l7.413-23.82
				c-1.695,4.258-2.219,20.59-1.76,27.581c-0.058-4.819,4.322,0.875,5.908-1.402l-1.589-5.851c5.34,4.24,9.046-33.636,14.648-31.794
				c-1.209,4.955-4.829,30.742-2.261,34.088c2.569-12.327,12.004-59.308,18.145-68.385l0.23,7.215l4.772-7.688
				c-4.448,18.427-15.363,57.212-20.578,72.174c1.556,5.847-0.268,8.45,2.989,8.123c0.432,6.786-2.784,9.949-3.758,10.248
				l6.953,5.038c1.194-14.592,7.202-13.965,8.213-26.095l-9.662,14.213c1.171-14.536,9.005-40.8,14.057-37.615
				c0.728,5.933-3.778,25.75-4.184,30.604c1.215-4.926,6.03-8.989,6.133-5.392l-3.076,7.519c2.331,5.788,6.885-18.716,8.893-4.462
				c1.12,1.065,1.556,19.104,2.72,10.533c-0.13-16.789,5.125-68.093,7.861-80.385c0.313,1.166,4.741,16.567,5.211,24.905
				c0.548,13.216-6.527,30.617-6.068,41.968c0.521-3.958,2.182-8.726,2.825-10.247c0.898,3.529-1.923,12.225,1.062,10.744
				c2.141-14.665,5.521,1.882,2.736-12.293c3.21-3.9,2.553,3.349,5.827,3.066c0.074-9.625,6.64-32.033,9.904-35.919
				c-0.604,3.726-0.559,8.664-0.521,10.917c5.473,1.978,7.682,9.074,12.893,9.836c0.051,3.625,2.042,8.25,0.193,14.44
				c1.068-2.508,2.369-7.405,4.022-7.562c1.546,13.104-3.825,1.535-3.332,17.102c1.25-8.515,5.599-11.266,8.561-16.315
				c0.936-13.284-4.996-3.192-7.938,1.852c2.213-18.205,8.566-36.765,15.149-44.486c4.958-3.969,0.422,12.001,1.511,9.502
				c7.805,4.203,11.071-30.886,16.248-16.908c1.215,11.926-2.872,23.072-3.356,31.502c-4.118,3.945-4.506-8.035-6.98-7.876
				l2.264,5.854c-1.626,3.714-4.367,6.341-5.23,2.818c0.922,10.724,13.583,3.662,18.6,14.188c1.63-3.727,4.101-7.474,3.809-12.259
				l-2.213,1.341c-0.595-9.595,5.486-12.395,3.533-17.112c3.56-6.191,7.98-16.091,11.068-10.289l-1.087,13.305
				c0.446-3.87-1.408-8.205-3.015-4.337c2.379-5.625,3.362,18.676,7.456,1.628l-1.405-9.509c3.607-6.263,8.907-19.812,11.712-15.184
				c0.271-13.246-0.984,1.389-1.276-14.199c-0.538,19.26-8.561-1.991-7.944,18.413c-0.044-18.046-3.236-8.097-4.428-23.64
				c-0.487,4.366,0.021,8.484-2.535,5.949c-0.3,1.256-0.82,2.831-1.141,3.75c-0.067-0.127-0.092-0.204-0.146-0.347
				c0.031,0.187,0.059,0.343,0.089,0.533c-0.207,0.634-0.241,0.773,0.034,0.188c0.423,1.998,0.66,4.363,0.558,6.827
				c-2.757,9.802-7.211,8.866-9.416,13.831c-1.403-2.301,1.364-4.896,1.061-9.672l-3.295,7.434
				c1.056-9.724-2.367-16.667,2.355-21.82l-3.525-0.888c-1.402-5.694-4.036-8.213-6.354-4.366
				c-1.426-2.308-5.643,10.179-3.198,2.784l-6.385,5.298l0.254-2.426c-5.403-1.917-13.374,14.617-17.571-3.662
				c-2.164,2.212-4.451,4.962-7.242,1.824l0.396-8.461c-2.744,2.606-6.232-9.237-8.292-0.62c0.037-22.856-11.122-6.234-14.89-10.714
				l-1.396,10.938c-2.838-0.949-5.977,1.849-10.066,5.852l-0.845,9.706c-3.965,7.604-7.219-7.783-12.238-7.342
				c0.728-3.668,1.871-2.56,2.512-0.225c-3.557-22.577-14.057,14.632-17.712-1.848c-1.688,3.391-2.524,2.093-3.21-0.436
				c0.127-0.01,0.256-0.177,0.382-0.479c-0.126-0.126-0.323-0.167-0.534-0.171c-0.415-1.726-0.824-3.723-1.324-5.343
				c0.32,2.409,0.656,4.403,1.028,5.347c-1.045,0.102-2.72,1.15-4.482,3.428l0.391-10.477c-0.14,0.13-0.234,0.096-0.381,0.267
				c-1.116-3.997-1.695,4.812-1.678,12.722c-0.937,1.633-1.841,3.625-2.635,6.081c0.45-16.925-4.536,5.269-4.434-12.824
				c-1.879,8.643-8.288,5.82-10.844,24.141c0.177-2.403-0.16-3.588,0.671-3.654c-1.484-2.271-2.979-4.524-4.979,0.507l0.526-13.315
				l-5.349,17.447c-1.487-8.274-1.999-13.042,1.18-23.049c-6.837,15.218-4.924,5.53-10.9,20.683l0.993-8.549
				c-1.667,0.184-5.299,11.439-5.653,4.271c-2.235-16.603-17.881-3.81-26.049-19.764c-0.211,25.406-3.469-11.701-5.411,7.849
				c-0.072-6.001-1.123-9.472,0.819-14.554c-5.278,5.518-6.518-10.006-11.115,6.259c-0.093-6.041,1.701-8.686,1.484-12.266
				c-0.487,1.262-1.931,5.081-2.161,1.483c-0.222-3.597,1.089-4.969,2.052-7.515c-5.023,0.644-6.898,19.019-8.542,36.274
				c-1.872-8.366-3.206-7.301-5.827,3.902c-0.446-5.714-1.46-11.734,1.735-13.545c-1.646-0.945-9.891-9.057-11.041,4.788
				c-0.285-3.553-2.32-1.205-2.882,0.368c-3.78-1.109-4.036-2.386-7.896-1.345l0.892,2.342c-2.617,16.612-3.38,3.476-6.556,5.315
				l0.2-1.712c-6.183-12.477-3.375,5.603-9.375-8.58l-0.283,10.422c-2.046,22.337-5.254-13.559-9.795-5.245l1.082,6.031
				c-2.627,7.525-4.261-30.801-6.32-33.731c-0.367-1.974,0.943-3.076,1.703-4.478c-5.015-13.547-1.553,13.59-6.028,16.495
				c-0.371-7.398,2.104-18.63-0.722-20.175c-1.127-6.042-9.733,23.361-12.905,9.028c0.567,5.719,1.122,11.419-1.097,15.574
				c-3.145,1.88-7.15-21.819-10.826-4.08c-0.309-1.562-0.381-3.057-0.326-4.466c-2.57,4.5-7.971,7.301-9.833,16.922
				c-0.48-36.065-15.268,16.81-13.726-16.353l-7.26,1.43l0.327-3.377c-4.507-2.427-6.456,5.504-8.38,13.402
				c-0.973-2.29-0.078-5.357,0.079-7.093c-6.439-6.926-7.191-5.541-13.399,10.8l-0.2-10.779c-1.723,6.201-9.132-17.218-16.135-4.887
				c0.1-1.212,0.303-3.302,0.875-4.802c-7.751,12.351-16.969-30.45-20.718,8.746l-5.12,9.56c6.221,3.179-1.352,16.997,1.074,23.565
				c-2.51,2.25-6.093-11.963-3.01-13.91l0.427,1.968c1.605-20.414-7.653-7.408-7.178-21.325
				c-12.439,0.766-24.382-10.901-36.078-11.801l1.161,15.911l-4.05-0.949c-1.024-3.71-1.303-12.45,1.596-11.765
				c-1.437-9.023-4.952,7.504-5.065,10.965c-5.617-6.49,2.398-18.521,0.662-18.919l-2.387,1.171l0.519,1.86
				c-1.982,6.48-2.208,13.362-5.687,12.553c-2.182-3.199-1.059-9.816-1.923-10.435c0.013-1.131-0.279-1.661-1.336-0.467
				l-5.125-1.406L303.356,441c-2.304,6.171-4.806-0.694-2.524,13.545c-3.352-21.988-19.042-7.997-21.157-14.735
				c-3.172,9.161-6.292,9.019-10.177,7.933c0.975,2.607,1.596,16.715-1.739,15.002c1.094-29.119-6.169-12.605-9.024-33.54
				c2.52,13.883-9.521,3.475-5.551,23.185c-2.813-2.339-0.266-10.898-2.447-17.739c-6.544,11.269-14.779-7.188-22.999-3.224
				c-0.064,3.822,1.402,9.643-0.271,15.36l-4.663-19.028c-1.605,1.905-1.116,22.085-4.326,8.876c0.481,3.21,1.191,8.049,0.129,9.284
				c-8.229-9.152-16.415-5.231-24.626-3.254c-8.226,2.025-16.478,2.005-25.253-15.23c2.464,7.338,1.004,8.114-0.684,8.44
				c1.161,1.736,0.282,9.438,0.67,14.611l-7.332-14.168c-0.75,14.406-7.323,1.205-7.535,14.958l2.072-2.532
				c-2.275,16.299,5.316,35.902,5.609,56.721c2.564-18.528,9.262,27.04,13.602,0.494c1.28,4.206-0.771,6.728-0.003,11.534
				c1.035-8.958,2.575-10.864,5.646-6.957l-0.269,2.216c8.217-2.409,12.016,6.201,21.419,11.864l-0.931-10.278
				c2.032,1.345,2.527,4.561,3.521,7.12c1.933-15.639-5.629-0.78-3.947-18.021c3.138,20.895,14.137,0.062,16.392,23.828
				c3.066,0.071-1.125-11.898,1.948-11.816l0.931,6.425l0.623-8.311c2.042,1.334,3.195,9.369,3.364,14.818
				c-0.499-0.633-1.356,1.552-1.869,2.027c2.725,7.539,7.284-2.723,8.221-0.265l-3.003-3.914c8.28-6.185,18.576,2.08,26.548-11.003
				l-0.658-4.86c6.131-9.017,5.005,5.316,11.772,1.12l-0.243,1.16c1.334-4.847,3.146-7.294,5.011-6.756
				c-1.689,5.697,3.27,11.041,1.044,17.347c6.669-9.679,3.282-7.593,7.698-25.664l1.035,8.045
				c1.509-7.293,1.634-11.136,5.045-13.246c-2.794,6.933,2.168,12.272-0.961,21.436c7.079,17.558,10.629-17.746,13.808,8.025
				c3.371-22.275-6.119-12.437-4.27-17.191c-1.523-7.305,2.764-16.652,5.008-14.39c2.298,0.515,3.751,28.562,9.457,28.187
				c-0.564-0.115-0.618,1.576-1.186,1.475c2.095,5.704,4.253-7.672,6.8,1.593c1.593-13.474,3.395,0.8,3.991-16.395l-5.298,3.935
				c3.007-4.473,6.023-24.576,10.852-14.777c-0.423,3.467-1.937,8.018-2.969,10.557c1.381,5.081,2.802-3.342,4.235,1.879
				c-0.624,17.218-6.434,3.696-9.74,16.796c1.46,7.283,6.14-12.419,4.353,6.211c2.554-23.688,5.575,3.036,9.667-15.032
				l-0.391,10.308c0.631-1.612,1.966-6.479,3.092-6.203l-2.221,13.354c3.285-11.392,5.87,10.029,8.951,3.897
				c-6.271,0.188-1.213-12.457-3.757-20.033c7.987-13.637,4.036,27.064,12.749,22.303c-1.192,1.43-4.285-6.285-2.364-11.021
				c1.61,2.155,3.712,6.157,4.619,11.59c5.767-2.022-0.674-10.627,1.893-16.909c1.703,12.606,2.92-5.055,5.538-9.022l-0.206,10.482
				c6.401,6.864,2.221-21.806,7.957-13.552l-2.833,14.478l3.164-3.688l-0.912,11.908c3.543-8.774,4.54-6.463,7.722-3.054
				c-0.572-7.398,0.917-19.011,3.841-19.276c1.819,6.269-1.373,9.941,2.784,8.529c-1.111,6.534-2.341,14.743-3.875,5.058
				c-0.275,3.409-1.088,6.555-1.366,9.924c1.938,7.212,5.294,1.726,6.781,1.698c-0.56-0.411-1.225-1-1.537-2.498l6.371-14.325
				c0.826,3.969-0.013,7.104-0.84,10.177c1.237-1.097,2.214-5.878,4.02-6.719c-0.715,8.498-0.871,17.293-3.492,21.217l5.943-9.257
				c0.264,3.72,2.582,10.271,1.749,13.386c2.955,5.118,8.228-16.262,12.166-9.513c0.275-1.641,0.764-3.206,1.695-4.394
				c3.85,2.062,6.902,12.619,11.986,1.105l2.024,15.357c3.765-3.343-2.801-19.353,3.485-24.907
				c4.492-4.676,1.068,13.096,2.393,17.412c2.434-7.597,6.827-23.079,10.225-10.469
				C434.096,534.836,433.173,532.528,431.907,533.604 M477.074,529.066c-0.994,2.145-3.101,8.822-3.394,2.604
				C475.335,519.742,475.787,525.523,477.074,529.066 M547.13,508.411c-0.913,3.407-1.787,1.62-2.625-2.419
				C545.394,505.195,546.299,505.659,547.13,508.411 M747.158,455.587c-0.061,0.185-0.102,0.313-0.159,0.493
				C745.543,451.785,746.036,453.467,747.158,455.587 M750.682,460.613c0.603-1.398,0.762-2.842,0.779-4.314
				c-0.633,2.597-1.58,2.657-2.535,1.786C748.864,460.846,749.149,462.789,750.682,460.613 M307.351,434.156l0.788,2.746
				C306.297,439.911,306.828,437.188,307.351,434.156"/>
			<path clip-path="url(#SVGID_12_)" fill="#DDC0A2" d="M538.298,522.145c-0.115-1.784-0.041-3.737,0.044-5.708
				C537.872,518.17,537.716,520.197,538.298,522.145"/>
			<path clip-path="url(#SVGID_12_)" fill="#DDC0A2" d="M403.85,538.039c-0.043-0.082-0.087-0.055-0.133-0.123
				c-0.097,0.63-0.156,1.263-0.202,1.886L403.85,538.039z"/>
			<path clip-path="url(#SVGID_12_)" fill="#DDC0A2" d="M677.021,541.227c-0.654-1.589-0.902-3.549-0.987-5.554
				C675.701,538.222,675.834,540.414,677.021,541.227"/>
			<path clip-path="url(#SVGID_12_)" fill="#DDC0A2" d="M774.828,445.938l-3.008,2.338c1.347-0.337,1.49,1.998,1.908,3.733
				C774.005,449.573,773.981,445.996,774.828,445.938"/>
			<path clip-path="url(#SVGID_12_)" fill="#DDC0A2" d="M788.531,513.319c0.561-1.222,0.823-0.027,1.381-1.263l0.589-4.843
				C788.838,507.309,787.149,511.042,788.531,513.319"/>
			<path clip-path="url(#SVGID_12_)" fill="#DDC0A2" d="M772.521,480.786c-0.993,8.767,1.049,6.027,3.102,4.659
				c-0.112,0.018-0.229,0.075-0.324-0.045C777.53,473.251,775.019,477.028,772.521,480.786"/>
			<path clip-path="url(#SVGID_12_)" fill="#DDC0A2" d="M776.088,485.207c0.619-0.33,1.231-0.479,1.722,0.014
				C778.705,480.354,777.266,484.111,776.088,485.207"/>
			<path clip-path="url(#SVGID_12_)" fill="#DDC0A2" d="M756.65,455.516c0.575,2.375,2.032-11.105,2.053-7.471
				C761.154,437.048,751.09,460.706,756.65,455.516"/>
			<polygon clip-path="url(#SVGID_12_)" fill="#DDC0A2" points="770.029,509.772 770.863,498.896 768.647,507.448 			"/>
			<path clip-path="url(#SVGID_12_)" fill="#DDC0A2" d="M756.746,499.876l2.506,3.39c0.2-1.817,0.71-2.828,1.275-3.577
				C758.785,499.087,757.107,496.666,756.746,499.876"/>
			<path clip-path="url(#SVGID_12_)" fill="#DDC0A2" d="M760.527,499.688c0.905,0.341,1.824,0.232,2.583-1.464
				C762.59,498.272,761.453,498.478,760.527,499.688"/>
			<polygon clip-path="url(#SVGID_12_)" fill="#DDC0A2" points="765.615,512.461 765.067,510.097 763.125,509.021 			"/>
			<path clip-path="url(#SVGID_12_)" fill="#DDC0A2" d="M725.693,493.753l-3.567,2.699c-0.786,3.665-0.2,6.038,1.165,4.714
				C724.373,498.678,725.73,497.395,725.693,493.753"/>
			<path clip-path="url(#SVGID_12_)" fill="#DDC0A2" d="M731.534,524.534c-0.569-2.349-0.317-4.766-0.348-8.387l-1.804,13.383
				L731.534,524.534z"/>
			<path clip-path="url(#SVGID_12_)" fill="#DDC0A2" d="M721.936,526.511c-0.782,3.68-5.901,10.095-1.81,9.751
				C720.904,532.617,724.451,529.925,721.936,526.511"/>
			<polygon clip-path="url(#SVGID_12_)" fill="#DDC0A2" points="676.279,503.902 677.106,503.827 679.454,481.814 			"/>
			<path clip-path="url(#SVGID_12_)" fill="#DDC0A2" d="M628.843,552.118c3.179,5.646,2.246-13.498,4.941-6.578
				c1.398-5.116-2.205-5.646-0.857-10.051C630.125,540.751,629.261,537.531,628.843,552.118"/>
			<path clip-path="url(#SVGID_12_)" fill="#DDC0A2" d="M632.927,535.485c0.449-0.826,0.937-1.848,1.486-3.232
				C633.621,533.56,633.209,534.584,632.927,535.485"/>
			<polygon clip-path="url(#SVGID_12_)" fill="#DDC0A2" points="156.381,425.072 153.739,420.535 155.604,427.917 			"/>
			<path clip-path="url(#SVGID_12_)" fill="#DDC0A2" d="M152.243,441.623l-1.104-14.076l-1.004,12.804
				C150.664,439.707,151.702,438.454,152.243,441.623"/>
			<path clip-path="url(#SVGID_12_)" fill="#DDC0A2" d="M482.093,557.84l0.379-3.383c-0.16-3.683-0.698-3.996-1.787-4.636
				L482.093,557.84z"/>
			<polygon clip-path="url(#SVGID_12_)" fill="#DDC0A2" points="450.309,545.574 450.854,545.883 450.428,533.096 			"/>
			<path clip-path="url(#SVGID_12_)" fill="#DDC0A2" d="M422.445,560.542c1.086,0.582,2.502-2.198,3.591-1.606
				C423.535,561.124,422.799,544.638,422.445,560.542"/>
		</g>
	</g>
	<path clip-path="url(#SVGID_8_)" fill="none" stroke="#D57345" stroke-width="10.834" stroke-miterlimit="10" d="M91.989,523.435
		c242.225-17.752,487.272-10.108,733.648,22.878"/>
	<path clip-path="url(#SVGID_8_)" fill="none" stroke="#EB9F6D" stroke-width="9.931" stroke-miterlimit="10" d="M115.404,360.669
		l108.923,13.015c115.022,13.745,231.976,13.745,346.998,0l108.923-13.015"/>
	<g opacity="0.3" clip-path="url(#SVGID_8_)">
		<g>
			<defs>
				<rect id="SVGID_13_" x="113.351" y="187.994" width="568.949" height="57.813"/>
			</defs>
			<clipPath id="SVGID_14_">
				<use xlink:href="#SVGID_13_"  overflow="visible"/>
			</clipPath>
			<path clip-path="url(#SVGID_14_)" fill="none" stroke="#DDC0A2" stroke-width="9.931" stroke-miterlimit="10" d="
				M680.248,228.624l-108.923-13.015c-115.022-13.745-231.976-13.745-346.998,0l-108.924,13.015"/>
		</g>
	</g>
	<g opacity="0.3" clip-path="url(#SVGID_8_)">
		<g>
			<defs>
				<rect id="SVGID_15_" x="114.657" y="238.34" width="566.335" height="35.86"/>
			</defs>
			<clipPath id="SVGID_16_">
				<use xlink:href="#SVGID_15_"  overflow="visible"/>
			</clipPath>
			<path clip-path="url(#SVGID_16_)" fill="none" stroke="#DDC0A2" stroke-width="3.611" stroke-miterlimit="10" d="
				M680.248,267.953L571.325,254.94c-115.022-13.745-231.976-13.745-346.998,0l-108.924,13.013"/>
		</g>
	</g>
	<path clip-path="url(#SVGID_8_)" fill="none" stroke="#EB9F6D" stroke-width="1.806" stroke-miterlimit="10" d="M680.248,195.229
		l-108.923-13.013c-115.022-13.744-231.976-13.744-346.998,0l-108.924,13.013"/>
	<path clip-path="url(#SVGID_8_)" fill="none" stroke="#EB9F6D" stroke-width="6.32" stroke-miterlimit="10" d="M680.248,137.544
		L571.325,124.53c-115.022-13.745-231.976-13.745-346.998,0l-108.924,13.015"/>
	<path clip-path="url(#SVGID_8_)" fill="none" stroke="#EB9F6D" stroke-width="1.806" stroke-miterlimit="10" d="M115.404,323.036
		l108.923,13.015c115.022,13.745,231.976,13.745,346.998,0l108.923-13.015"/>
</g>
<g>
	<defs>
		<rect id="SVGID_17_" x="-977.04" y="-639" width="2788.08" height="2091.061"/>
	</defs>
	<clipPath id="SVGID_18_">
		<use xlink:href="#SVGID_17_"  overflow="visible"/>
	</clipPath>
	<g opacity="0.2" clip-path="url(#SVGID_18_)">
		<g>
			<defs>
				<rect id="SVGID_19_" x="370.45" y="131.744" width="257.406" height="391.872"/>
			</defs>
			<clipPath id="SVGID_20_">
				<use xlink:href="#SVGID_19_"  overflow="visible"/>
			</clipPath>
			<path clip-path="url(#SVGID_20_)" d="M402.888,523.615c124.246,0,224.968-100.718,224.968-224.967
				c0-66.209-28.609-125.739-74.133-166.904c36.082,39.901,58.062,92.801,58.062,150.836c0,124.247-117.088,238.711-241.333,238.711
				"/>
		</g>
	</g>
	<path clip-path="url(#SVGID_18_)" fill="#EB9F6D" d="M344.642,401.15c-0.722,12.187-21.841,20.846-47.171,19.345
		c-25.333-1.498-45.281-12.597-44.56-24.779c0.722-12.184,21.84-20.844,47.17-19.347
		C325.414,377.872,345.363,388.966,344.642,401.15"/>
	<path clip-path="url(#SVGID_18_)" fill="none" stroke="#F2D0B5" stroke-width="2.349" stroke-miterlimit="10" d="M344.642,401.15
		c-0.722,12.187-21.841,20.846-47.171,19.345c-25.333-1.498-45.281-12.597-44.56-24.779c0.722-12.184,21.84-20.844,47.17-19.347
		C325.414,377.872,345.363,388.966,344.642,401.15z"/>
</g>
</svg>
