<?xml version="1.0" encoding="utf-8"?>
<!-- Generator: Adobe Illustrator 15.1.0, SVG Export Plug-In . SVG Version: 6.00 Build 0)  -->
<!DOCTYPE svg PUBLIC "-//W3C//DTD SVG 1.1//EN" "http://www.w3.org/Graphics/SVG/1.1/DTD/svg11.dtd">
<svg version="1.1" id="Earth" xmlns="http://www.w3.org/2000/svg" xmlns:xlink="http://www.w3.org/1999/xlink" x="0px" y="0px"
	 width="800px" height="600px" viewBox="0 0 800 600" enable-background="new 0 0 800 600" xml:space="preserve">
<g>
	<defs>
		<rect id="SVGID_1_" x="-2368.201" y="-113.887" width="3598.401" height="2698.801"/>
	</defs>
	<clipPath id="SVGID_2_">
		<use xlink:href="#SVGID_1_"  overflow="visible"/>
	</clipPath>
	<path clip-path="url(#SVGID_2_)" fill="#3EB4E7" d="M630.197,295.48c0,127.193-103.111,230.309-230.312,230.309
		c-127.197,0-230.308-103.116-230.308-230.309c0-127.201,103.111-230.312,230.308-230.312
		C527.086,65.168,630.197,168.279,630.197,295.48"/>
</g>
<g>
	<defs>
		<path id="SVGID_3_" d="M174.537,299.758c0,127.2,103.116,230.312,230.317,230.312c127.194,0,230.307-103.111,230.307-230.312
			c0-127.193-103.112-230.307-230.307-230.307C277.652,69.451,174.537,172.564,174.537,299.758"/>
	</defs>
	<clipPath id="SVGID_4_">
		<use xlink:href="#SVGID_3_"  overflow="visible"/>
	</clipPath>
	<g opacity="0.2" clip-path="url(#SVGID_4_)">
		<g>
			<defs>
				<rect id="SVGID_5_" x="76.661" y="21.098" width="305.935" height="360.146"/>
			</defs>
			<clipPath id="SVGID_6_">
				<use xlink:href="#SVGID_5_"  overflow="visible"/>
			</clipPath>
			<path clip-path="url(#SVGID_6_)" d="M371.646,71.84c0,0,19.063,56.052,6.883,75.074c-12.187,19.02-29.277,46.225-56.599,49.544
				c-27.33,3.32-38.158-15.418-57.107,3.428c-18.955,18.842-25.719,44.85-20.308,59.594c5.412,14.748,24.366,47.619,24.366,47.619
				s2.71,35.018-1.353,41.685c-4.058,6.665-1.344,17.087-37.903,29.357C193.069,390.412,121.333,362.3,121.333,362.3L76.661,146.914
				l190.866-125.82L371.646,71.84z"/>
		</g>
	</g>
	<g opacity="0.2" clip-path="url(#SVGID_4_)">
		<g>
			<defs>
				<rect id="SVGID_7_" x="433.027" y="2.143" width="379.943" height="306.941"/>
			</defs>
			<clipPath id="SVGID_8_">
				<use xlink:href="#SVGID_7_"  overflow="visible"/>
			</clipPath>
			<path clip-path="url(#SVGID_8_)" d="M784.151,285.877c0,0-51.081,29.927-72.16,21.812c-21.085-8.117-51.161-19.404-59.898-45.509
				c-8.737-26.103,7.45-40.473-14.816-55.258c-22.266-14.782-49.095-16.193-62.457-7.931c-13.362,8.265-41.76,33.426-41.76,33.426
				s-33.762,9.679-41.106,7.039c-7.349-2.64-17.013,2.115-36.37-31.238c-19.358-33.353-22.56-206.071-22.56-206.071l218.389,9.82
				l161.559,161.732L784.151,285.877z"/>
		</g>
	</g>
	<g opacity="0.2" clip-path="url(#SVGID_4_)">
		<g>
			<defs>
				<rect id="SVGID_9_" x="359.965" y="178.071" width="79.105" height="156.177"/>
			</defs>
			<clipPath id="SVGID_10_">
				<use xlink:href="#SVGID_9_"  overflow="visible"/>
			</clipPath>
			<path clip-path="url(#SVGID_10_)" d="M366.808,316.229c-5.131-6.271-8.249-23.242-6.22-31.801
				c2.025-8.554,4.836-20.781,11.71-23.178c6.875-2.398,10.784,5.212,14.575-3.509c3.787-8.726,3.998-20.065,1.727-26.168
				c-2.276-6.104-9.119-19.455-9.119-19.455s-2.777-14.852-2.117-17.843c0.654-2.991-0.664-7.34,8.067-13.889
				c8.734-6.55,28.957,2.877,28.957,2.877s28.288,67.301,24.292,90.342c-3.137,18.146-23.712,57.89-41.933,60.554
				C388.112,335.421,372.334,322.975,366.808,316.229"/>
		</g>
	</g>
</g>
<g>
	<defs>
		<path id="SVGID_11_" d="M169.577,295.475c0,127.195,103.111,230.312,230.308,230.312c127.201,0,230.316-103.117,230.316-230.312
			c0-127.194-103.115-230.305-230.316-230.305C272.688,65.17,169.577,168.281,169.577,295.475"/>
	</defs>
	<clipPath id="SVGID_12_">
		<use xlink:href="#SVGID_11_"  overflow="visible"/>
	</clipPath>
	<path clip-path="url(#SVGID_12_)" fill="#AAD04C" d="M366.681,67.56c0,0,19.063,56.051,6.883,75.072
		c-12.185,19.021-29.275,46.227-56.603,49.546c-27.326,3.321-38.153-15.418-57.107,3.424c-18.95,18.846-25.719,44.853-20.302,59.599
		c5.412,14.748,24.365,47.62,24.365,47.62s2.706,35.018-1.353,41.683c-4.063,6.666-1.344,17.087-37.904,29.357
		c-36.559,12.271-108.291-15.841-108.291-15.841L71.697,142.631L262.564,16.814L366.681,67.56z"/>
	<path clip-path="url(#SVGID_12_)" fill="#AAD04C" d="M779.188,281.597c0,0-51.078,29.927-72.166,21.807
		c-21.081-8.117-51.161-19.399-59.893-45.506c-8.737-26.101,7.45-40.471-14.816-55.256c-22.267-14.781-49.101-16.193-62.458-7.931
		c-13.362,8.262-41.76,33.425-41.76,33.425s-33.763,9.679-41.11,7.04c-7.345-2.64-17.009,2.108-36.367-31.243
		C431.261,170.583,428.062-2.135,428.062-2.135l218.387,9.817l161.559,161.734L779.188,281.597z"/>
	<path clip-path="url(#SVGID_12_)" fill="#AAD04C" d="M361.844,311.945c-5.134-6.264-8.25-23.241-6.225-31.795
		c2.031-8.56,4.841-20.786,11.715-23.182c6.875-2.395,10.784,5.211,14.571-3.51c3.791-8.722,4.001-20.065,1.73-26.169
		c-2.275-6.1-9.123-19.455-9.123-19.455s-2.772-14.847-2.113-17.838c0.654-2.991-0.663-7.345,8.069-13.894
		c8.733-6.549,28.953,2.879,28.953,2.879s28.292,67.299,24.294,90.342c-3.136,18.144-23.715,57.887-41.936,60.551
		C383.148,331.139,367.372,318.699,361.844,311.945"/>
	<path clip-path="url(#SVGID_12_)" fill="#AAD04C" d="M578.597,427.564c8.89,6.951,18.129,32.271,8.771,44.284
		c-9.355,12.009-22.463,29.164-45.046,32.691c-22.586,3.522-32.346-7.013-47.338,5.275s-19.557,28.144-14.46,36.614
		c5.099,8.47,22.186,26.951,22.186,26.951s3.678,20.687,0.571,24.884c-3.104,4.192-0.427,10.24-30.321,19.62
		c-29.896,9.375-172.383,0.253-172.383,0.253l35.826-129.165c0,0,110.345-77.693,153.574-85.697
		C512.562,399.095,560.494,413.426,578.597,427.564"/>
</g>
<g>
	<defs>
		<rect id="SVGID_13_" x="-2368.201" y="-113.887" width="3598.401" height="2698.801"/>
	</defs>
	<clipPath id="SVGID_14_">
		<use xlink:href="#SVGID_13_"  overflow="visible"/>
	</clipPath>
	<g opacity="0.2" clip-path="url(#SVGID_14_)">
		<g>
			<defs>
				<rect id="SVGID_15_" x="366.681" y="124.61" width="263.521" height="401.177"/>
			</defs>
			<clipPath id="SVGID_16_">
				<use xlink:href="#SVGID_15_"  overflow="visible"/>
			</clipPath>
			<path clip-path="url(#SVGID_16_)" d="M399.885,525.789c127.201,0,230.312-103.116,230.312-230.309
				c0-67.787-29.286-128.725-75.892-170.872c36.937,40.851,59.44,95.007,59.44,154.421c0,127.196-119.873,244.382-247.065,244.382"
				/>
		</g>
	</g>
	<path clip-path="url(#SVGID_14_)" fill="#3EB4E7" d="M322.892,109.295c0,0-15.844-4.82-33.796,7.617
		c-17.953,12.435-12.634,22.34-6.317,25.637c6.317,3.292,20.615,1.013,26.1,2.789c5.483,1.777,8.399,0.769,16.749-2.789
		c8.352-3.559-2.951-9.262,4.029-16.052c6.979-6.798,13.629-9.253,6.979-13.733C329.99,108.281,322.892,109.295,322.892,109.295"/>
	<g opacity="0.2" clip-path="url(#SVGID_14_)">
		<g>
			<defs>
				<rect id="SVGID_17_" x="276.984" y="108.378" width="62.249" height="33.091"/>
			</defs>
			<clipPath id="SVGID_18_">
				<use xlink:href="#SVGID_17_"  overflow="visible"/>
			</clipPath>
			<path clip-path="url(#SVGID_18_)" d="M291.607,119.28c17.954-12.435,33.796-7.614,33.796-7.614s7.095-1.017,13.745,3.468
				c0.03,0.021,0.053,0.042,0.088,0.063c-0.383-0.769-1.164-1.562-2.456-2.433c-6.65-4.481-13.748-3.469-13.748-3.469
				s-15.84-4.823-33.792,7.615c-16.319,11.309-13.398,20.502-7.991,24.563C277.771,136.738,277.942,128.744,291.607,119.28"/>
		</g>
	</g>
</g>
</svg>
