<?xml version="1.0" encoding="utf-8"?>
<!-- Generator: Adobe Illustrator 16.0.4, SVG Export Plug-In . SVG Version: 6.00 Build 0)  -->
<!DOCTYPE svg PUBLIC "-//W3C//DTD SVG 1.1//EN" "http://www.w3.org/Graphics/SVG/1.1/DTD/svg11.dtd">
<svg version="1.1"
	 id="svg2" inkscape:version="0.45" sodipodi:version="0.32" sodipodi:modified="true" xmlns:dc="http://purl.org/dc/elements/1.1/" xmlns:cc="http://web.resource.org/cc/" xmlns:inkscape="http://www.inkscape.org/namespaces/inkscape" xmlns:sodipodi="http://sodipodi.sourceforge.net/DTD/sodipodi-0.dtd" xmlns:svg="http://www.w3.org/2000/svg" xmlns:rdf="http://www.w3.org/1999/02/22-rdf-syntax-ns#"
	 xmlns="http://www.w3.org/2000/svg" xmlns:xlink="http://www.w3.org/1999/xlink" x="0px" y="0px" width="570px" height="540px"
	 viewBox="0 0 570 540" enable-background="new 0 0 570 540" xml:space="preserve">
<sodipodi:namedview  inkscape:current-layer="layer1" inkscape:document-units="px" inkscape:pageopacity="0.0" inkscape:window-y="24" inkscape:pageshadow="2" inkscape:window-x="0" inkscape:window-width="1280" inkscape:window-height="948" pagecolor="#ffffff" inkscape:cx="496.66923" inkscape:zoom="0.7" inkscape:cy="284.71754" width="570px" gridtolerance="10000" guidetolerance="10" height="540px" bordercolor="#666666" id="base" objecttolerance="10" borderopacity="1.0">
	</sodipodi:namedview>
<path id="path2271" sodipodi:nodetypes="ccccc" fill="#231F20" d="M13.515,81.425L556.452,12.89l-1.245,5.292L15.49,85.413
	L13.515,81.425z"/>
<path id="path2275" sodipodi:nodetypes="csscc" fill="#231F20" d="M560.062,16.931L368.956,529.998
	c-1.212,3.253-7.312,2.12-5.504-2.751L553.939,14.03L560.062,16.931z"/>
<path id="path2267" sodipodi:nodetypes="ccccssc" fill="#231F20" d="M395.244,111.385l-2.421,1.98l-24.21,414.651l-5.127-0.271
	c0,0,15.541-309.997,20.974-415.261c0.136-2.635-0.664-6.765,4.363-6.655C395.541,105.976,393.676,108.107,395.244,111.385z"/>
<path id="path2273" sodipodi:nodetypes="csscc" fill="#231F20" d="M9.329,85.775l353.938,445.473
	c2.239,2.818,7.973,0.261,4.622-3.962L14.644,82.047L9.329,85.775z"/>
<path id="path2269" sodipodi:nodetypes="cccsc" fill="#231F20" d="M383.58,112.577c-0.493-3.848,0.521-5.729,1.881-6.497
	L15.086,81.535c-6.987-0.233-9.136,5.05-0.52,6.084C22.634,88.587,383.58,112.577,383.58,112.577z"/>
<path id="path2265" sodipodi:nodetypes="cccsc" fill="#231F20" d="M389.619,105.333c4.021,0.845,4.116,4.249,4.047,7.548
	L558.92,18.455c2.89-1.927,0.878-7.276-3.09-5.564C552.114,14.493,389.619,105.333,389.619,105.333z"/>
</svg>
